<svg width="25" height="18" viewBox="0 0 25 18" fill="none" xmlns="http://www.w3.org/2000/svg">
<g clip-path="url(#clip0_92_145)">
<mask id="mask0_92_145" style="mask-type:luminance" maskUnits="userSpaceOnUse" x="0" y="0" width="26" height="18">
<path d="M6.10352e-05 0H25.0002V18H6.10352e-05V0Z" fill="white"/>
</mask>
<g mask="url(#mask0_92_145)">
<path fill-rule="evenodd" clip-rule="evenodd" d="M-1.5625 0H26.5625V18H-1.5625V0Z" fill="#199D00"/>
<path fill-rule="evenodd" clip-rule="evenodd" d="M5.52514 5.10224C5.49266 5.52274 5.45373 6.26278 5.82591 6.33868C6.27609 6.38024 6.02784 5.60722 6.1908 5.46705C6.2216 5.39779 6.2784 5.39744 6.28309 5.48481V6.14047C6.27899 6.35373 6.425 6.41652 6.53841 6.46057C6.65648 6.45181 6.73529 6.45561 6.78154 6.56586L6.83691 7.70004C6.83691 7.70004 7.11069 7.77527 7.12373 7.06209C7.1368 6.64338 7.03657 6.29287 7.09535 6.21138C7.0974 6.13133 7.20389 6.12655 7.27772 6.16557C7.39542 6.24524 7.44782 6.34364 7.63071 6.3043C7.90896 6.23068 8.07624 6.10074 8.08034 5.89564C8.06408 5.7007 8.0413 5.50576 7.95334 5.31082C7.96561 5.27534 7.89962 5.18352 7.91185 5.14804C7.96187 5.22324 8.03797 5.21698 8.05526 5.14804C8.00791 4.99824 7.93441 4.8547 7.81528 4.79254C7.71684 4.70929 7.57274 4.72631 7.51997 4.89998C7.49554 5.10009 7.59511 5.33785 7.74691 5.53167C7.77913 5.6074 7.82443 5.73322 7.80451 5.84653C7.72376 5.89079 7.64298 5.87233 7.5753 5.80374C7.5753 5.80374 7.35382 5.64427 7.35382 5.60884C7.41259 5.24757 7.36685 5.20661 7.3343 5.10635C7.31152 4.96794 7.24311 4.92357 7.1877 4.82904C7.1323 4.77264 7.05733 4.77264 7.02152 4.82904C6.92359 4.99198 6.96926 5.34172 7.03997 5.49841C7.0911 5.64248 7.16917 5.7329 7.13226 5.7329C7.1019 5.81432 7.0391 5.79552 6.99339 5.70154C6.92813 5.50731 6.91506 5.21748 6.91506 5.08701C6.8955 4.92519 6.87397 4.58006 6.76305 4.49238C6.69537 4.40393 6.59506 4.44706 6.56002 4.52782C6.55273 4.68841 6.55196 4.84897 6.57082 4.99698C6.64688 5.25654 6.6708 5.48481 6.70771 5.75062C6.71796 6.10668 6.49326 5.9051 6.50351 5.72858C6.55533 5.49929 6.54189 5.13838 6.49582 5.0469C6.45935 4.95542 6.41624 4.93285 6.32747 4.9479C6.25698 4.94379 6.07559 5.13391 6.02465 5.4493C6.02465 5.4493 5.98122 5.61165 5.96273 5.75579C5.93783 5.91867 5.82613 6.03363 5.74776 5.73287C5.68009 5.5143 5.63848 4.97616 5.52511 5.1022L5.52514 5.10224Z" fill="white"/>
<path fill-rule="evenodd" clip-rule="evenodd" d="M6.74841 6.82775C6.35115 7.01419 5.96696 7.1881 5.57617 7.36828C5.59045 7.11319 6.13351 6.65271 6.50382 6.64624C6.74486 6.65271 6.68429 6.73585 6.74841 6.82775Z" fill="white"/>
<path fill-rule="evenodd" clip-rule="evenodd" d="M6.54364 7.18033C5.92584 8.70917 7.99035 8.92218 8.22107 7.24295C8.24278 7.17404 8.32983 7.10513 8.34507 7.21788C8.2972 8.73832 6.74817 8.8428 6.48494 8.36447C6.41971 8.25172 6.40008 8.00109 6.39357 7.85069C6.35438 7.55207 6.19127 7.66693 6.16516 7.96347C6.13901 8.12846 6.14557 8.17448 6.14557 8.33318C6.22822 9.53408 8.2233 9.01823 8.54744 8.02616C8.7193 7.47684 8.51913 7.0717 8.61266 7.07377C8.81067 7.27845 9.0869 7.10091 9.14784 7.0299C9.17399 6.99439 9.23928 6.97147 9.28495 7.01738C9.43938 7.12398 9.7114 7.07374 9.76794 6.88579C9.80061 6.702 9.82672 6.51194 9.83324 6.31567C9.70701 6.35328 9.61351 6.37828 9.6048 6.42845L9.57869 6.59132C9.56785 6.64357 9.45897 6.64561 9.45469 6.57877C9.40682 6.36991 9.20885 6.34277 9.08917 6.66652C9.00864 6.72917 8.86293 6.74172 8.84765 6.64775C8.86721 6.43052 8.77584 6.40127 8.59314 6.50361C8.53436 6.07337 8.47566 5.66197 8.41688 5.23169C8.49305 5.22958 8.56271 5.28386 8.63236 5.20033C8.55611 4.97273 8.39516 4.50695 8.30592 4.47351C8.26241 4.42341 8.22535 4.45474 8.16888 4.46725C8.07316 4.4965 7.98395 4.57589 8.01218 4.73043C8.12534 5.39039 8.19931 5.89375 8.31247 6.55374C8.32983 6.63102 8.26241 6.73329 8.1754 6.72284C8.02745 6.6268 7.99057 6.43259 7.73815 6.44089C7.55537 6.443 7.34645 6.63306 7.32041 6.81692C7.28994 6.96303 7.27903 7.12173 7.32034 7.2492C7.44877 7.39746 7.60323 7.3829 7.73811 7.34947C7.84907 7.30563 7.9404 7.19911 7.97959 7.22414C8.00574 7.2555 7.98607 7.60629 7.45741 7.87576C7.13763 8.01357 6.88304 8.04497 6.74604 7.7943C6.66119 7.63765 6.75256 7.04241 6.54364 7.1803V7.18033Z" fill="white"/>
<path fill-rule="evenodd" clip-rule="evenodd" d="M9.16421 5.62601C9.28821 5.58214 9.87573 4.93681 9.87573 4.93681C9.84522 4.91174 9.81801 4.89293 9.78754 4.86787C9.75488 4.84073 9.75817 4.81359 9.78754 4.78641C9.93329 4.70499 9.88653 4.52639 9.81039 4.44497C9.6842 4.39062 9.57433 4.40841 9.4938 4.44807C9.39156 4.54207 9.36768 4.6924 9.44821 4.78641C9.52658 4.82192 9.60484 4.89817 9.55258 4.93994C9.31224 5.18638 8.65408 5.61142 8.73025 5.62601C8.74651 5.64689 9.15121 5.64584 9.16421 5.62601ZM5.61658 7.91011C5.39627 8.24705 5.37708 8.75045 5.49866 8.90053C5.56326 8.97145 5.66939 9.00249 5.74791 8.9803C5.88633 8.92265 5.9469 8.65342 5.91405 8.55491C5.86784 8.48552 5.83147 8.47451 5.78533 8.53357C5.68792 8.72342 5.64749 8.59316 5.63896 8.48706C5.62402 8.28586 5.64375 8.10055 5.6665 7.95381C5.69074 7.80341 5.66613 7.8494 5.61658 7.91011ZM15.0313 7.37046C14.8183 6.93027 14.5233 6.49528 14.4295 6.32819C14.3357 6.16102 13.6273 5.17411 13.5231 5.06312C13.2929 4.80061 13.8968 5.17246 13.4467 4.65123C13.2751 4.50991 13.2651 4.50129 13.1227 4.38598C13.0508 4.33704 12.8754 4.24764 12.8444 4.39582C12.8287 4.5265 12.8372 4.59734 12.86 4.70615C12.8776 4.77868 12.9876 4.90014 13.0418 4.97052C13.7605 5.89794 14.3977 6.83451 15.0123 8.01207C15.1093 7.96777 15.0881 7.44412 15.0313 7.37046H15.0313Z" fill="white"/>
<path fill-rule="evenodd" clip-rule="evenodd" d="M14.0963 8.8433C14.0544 8.88844 14.1997 9.08152 14.3885 9.08131C14.7044 9.04615 14.9823 8.87585 15.2398 8.42757C15.3086 8.32302 15.4296 8.09943 15.4331 7.926C15.4572 6.90911 15.3801 6.11781 15.2214 5.3828C15.2112 5.31122 15.2174 5.22705 15.2301 5.20561C15.2505 5.18216 15.3198 5.20571 15.3566 5.14781C15.4106 5.0949 15.2133 4.65668 15.1008 4.48789C15.0609 4.41252 15.047 4.36218 14.9808 4.49675C14.9113 4.60609 14.8646 4.79692 14.8701 4.97523C15.0207 5.97659 15.067 6.85254 15.1655 7.85389C15.1735 7.95072 15.1586 8.09145 15.0916 8.14755C14.8436 8.39618 14.4856 8.70221 14.0963 8.8433ZM18.3623 8.83802C18.1356 8.96378 18.1354 9.10845 18.3186 9.11368C18.6344 9.07849 19.0076 9.05332 19.2649 8.68024C19.3338 8.57569 19.4156 8.293 19.4192 8.11957C19.4432 7.10268 19.4053 6.34365 19.2466 5.60871C19.2365 5.5371 19.2035 5.37232 19.2161 5.35084C19.2365 5.3005 19.3395 5.35632 19.3763 5.29839C19.4302 5.24551 19.1098 4.85025 18.9973 4.68146C18.9573 4.60613 18.9434 4.55578 18.8773 4.69032C18.8077 4.7997 18.7835 4.9959 18.8113 5.16884C18.9788 6.25615 19.1034 7.073 19.1291 8.03671C19.1147 8.12818 19.1111 8.17751 19.0664 8.29275C18.9676 8.41439 18.8581 8.56644 18.7554 8.63995C18.6528 8.71343 18.4337 8.7836 18.3623 8.83806V8.83802Z" fill="white"/>
<path fill-rule="evenodd" clip-rule="evenodd" d="M18.5323 7.86304C18.5297 7.60875 18.536 7.38917 18.5273 7.19953C18.5186 7.00986 18.4837 6.85542 18.4153 6.72081C18.3506 6.57646 18.3908 6.46048 18.3604 6.3067C18.33 6.153 18.3375 5.9228 18.2916 5.74041C18.279 5.66918 18.2405 5.44105 18.2524 5.41918C18.2711 5.36828 18.3423 5.42077 18.3771 5.36177C18.4292 5.30721 18.1963 4.72868 18.0782 4.56348C18.0357 4.48941 17.9585 4.51479 17.8634 4.6352C17.7752 4.71448 17.8079 4.89522 17.8416 5.06713C18.0682 6.20236 18.2372 7.22987 18.2004 8.31054C18.189 8.40244 18.5346 8.0365 18.5323 7.86304ZM16.8579 6.45503C16.7154 6.45253 16.4169 6.18876 16.3298 6.03421C16.2968 5.94558 16.318 5.8591 16.347 5.80843C16.3997 5.77549 16.481 5.73847 16.5416 5.77398C16.5416 5.77398 16.6046 5.8585 16.5924 5.86926C16.6702 5.90504 16.7033 5.88444 16.7112 5.85407C16.7165 5.80084 16.6882 5.76913 16.6878 5.71052C16.7208 5.55162 16.9101 5.5269 16.9813 5.62826C17.0335 5.69003 17.0526 5.82134 17.0605 5.90997C17.0596 5.95525 16.9833 5.90213 16.9399 5.91302C16.8965 5.92392 16.886 5.97202 16.8827 6.01551C16.8748 6.13075 16.8606 6.31567 16.8579 6.45499V6.45503ZM14.2274 8.14499C14.2667 7.79947 14.2129 7.18413 14.2094 6.98026C14.1949 6.49862 14.113 5.56832 14.074 5.41289C14.0301 5.11993 14.1995 5.44502 14.176 5.27473C14.1211 4.98219 13.9521 4.78388 13.7533 4.51592C13.6893 4.42873 13.6915 4.41097 13.5925 4.53729C13.4831 4.77565 13.5775 4.93965 13.6058 5.12531C13.7491 5.73021 13.8327 6.28677 13.8717 6.83697C13.9106 7.38716 13.9226 7.98208 13.887 8.56156C13.9944 8.5656 14.1671 8.39481 14.2274 8.14499Z" fill="white"/>
<path fill-rule="evenodd" clip-rule="evenodd" d="M19.0175 7.59153C18.7661 7.18671 18.3869 6.74824 18.2855 6.58522C18.1843 6.42216 17.3273 5.36073 17.2181 5.2542C16.9046 4.93804 17.3619 5.20273 17.1581 4.95854C16.9857 4.77685 16.9354 4.71983 16.7879 4.61056C16.714 4.56468 16.6691 4.47704 16.6448 4.62638C16.6351 4.75759 16.625 4.90939 16.6342 5.01996C16.6337 5.08144 16.7004 5.19693 16.7576 5.265C17.5177 6.16148 18.3467 7.07684 19.0141 8.22761C19.1091 8.17927 19.0775 7.66276 19.0175 7.59153Z" fill="white"/>
<path fill-rule="evenodd" clip-rule="evenodd" d="M7.61435 6.84448C7.59626 6.87493 7.55598 6.91438 7.56949 6.95519C7.59769 6.99189 7.62025 6.99935 7.66727 7.00135C7.70807 7.00135 7.76505 7.0106 7.77732 6.9875C7.79929 6.9643 7.81595 6.91687 7.79768 6.87215C7.7552 6.7702 7.63655 6.80817 7.61435 6.84448Z" fill="#1BA400"/>
<path fill-rule="evenodd" clip-rule="evenodd" d="M16.0951 12.7457C16.4312 12.7575 16.6512 12.7604 16.9501 12.7945C16.9501 12.7945 17.208 12.7701 17.3 12.7567C17.6891 12.7211 17.7063 13.2903 17.7063 13.2903C17.7021 13.6241 17.5679 13.6415 17.3965 13.6768C17.2986 13.6888 17.2472 13.6205 17.1957 13.5479C17.1312 13.5738 17.0434 13.5775 16.937 13.5634C16.797 13.5549 16.6569 13.5555 16.5168 13.5471C16.3681 13.5345 16.2889 13.5619 16.1401 13.5494C16.1094 13.5956 16.0696 13.6596 15.9786 13.639C15.9029 13.631 15.8132 13.4269 15.8396 13.2718C15.8942 13.1605 15.8792 13.1963 15.8735 13.1474C14.4993 13.1138 13.1119 13.055 11.7639 13.0718C10.7092 13.076 9.66757 13.118 8.62595 13.1601C8.07015 13.1516 7.64564 13.0676 7.35242 12.6559C7.37867 12.6559 8.77039 12.7315 9.17743 12.7063C9.93018 12.6978 10.6173 12.6391 11.3832 12.618C12.893 12.6432 14.3899 12.6433 15.8996 12.7441C15.7552 12.6492 15.75 12.4252 15.9723 12.3704C15.9912 12.3579 16.001 12.4818 16.0342 12.4795C16.2121 12.4667 16.1341 12.6979 16.095 12.7456L16.0951 12.7457ZM10.0332 4.75605C9.80442 5.3839 10.1643 6.07068 10.4139 6.00381C10.5939 6.07536 10.7085 5.74657 10.7822 5.38636C10.8327 5.28525 10.8708 5.2745 10.8966 5.32646C10.89 5.80546 10.9325 5.91156 11.0608 6.05697C11.3469 6.26893 11.5837 6.08404 11.6022 6.06618L11.825 5.85229C11.8746 5.80219 11.9406 5.79927 12.0107 5.84339C12.0788 5.90281 12.0692 6.0054 12.2149 6.07655C12.3376 6.12366 12.5998 6.08745 12.6606 5.98599C12.7423 5.85148 12.762 5.80529 12.7998 5.75427C12.8582 5.67971 12.9577 5.71286 12.9577 5.73641C12.9484 5.778 12.89 5.81963 12.9298 5.89451C12.9992 5.94447 13.0152 5.91234 13.0563 5.90123C13.2015 5.83461 13.3104 5.53145 13.3104 5.53145C13.3169 5.41867 13.251 5.42799 13.2083 5.45123C13.1526 5.48392 13.149 5.49436 13.0933 5.52706C13.0223 5.53718 12.8846 5.58236 12.8165 5.48118C12.747 5.3595 12.7461 5.18974 12.6929 5.06704C12.6929 5.05811 12.6007 4.87375 12.6866 4.86194C12.7299 4.86967 12.8223 4.89316 12.837 4.81845C12.8824 4.74561 12.7397 4.53938 12.642 4.43521C12.5573 4.34584 12.4398 4.33509 12.3264 4.42632C12.247 4.49645 12.2584 4.57482 12.2428 4.6491C12.2226 4.73439 12.2269 4.83933 12.3171 4.95215C12.3963 5.10216 12.541 5.29538 12.4935 5.56707C12.4935 5.56707 12.409 5.69549 12.2618 5.67869C12.2005 5.66586 12.101 5.64086 12.0479 5.26405C12.0076 4.97887 12.0573 4.57981 11.9313 4.39274C11.8857 4.27979 11.8525 4.1707 11.7415 4.36391C11.7116 4.43978 11.5837 4.55492 11.6765 4.79173C11.7524 4.94185 11.7833 5.18618 11.7489 5.45808C11.6963 5.53532 11.6846 5.56148 11.6156 5.63875C11.5187 5.73877 11.4135 5.71325 11.333 5.67588C11.2577 5.62718 11.1988 5.60201 11.1645 5.44732C11.1707 5.20077 11.185 4.79715 11.138 4.71154C11.0688 4.57893 10.9547 4.62688 10.9059 4.66696C10.6716 4.87259 10.5559 5.21955 10.4852 5.49584C10.4202 5.69718 10.3511 5.63949 10.3024 5.55824C10.1841 5.45179 10.1761 4.61922 10.0332 4.75612V4.75605Z" fill="white"/>
<path fill-rule="evenodd" clip-rule="evenodd" d="M10.722 6.12061C10.8259 6.04994 10.7774 6.00058 10.9328 6.14972C11.1273 6.46901 11.2524 6.88255 11.2711 7.24891C11.2629 7.33919 11.3292 7.39632 11.3595 7.3767C11.3775 7.16475 11.9144 6.86944 12.4067 6.82626C12.482 6.81055 12.4454 6.67203 12.4577 6.6014C12.4282 6.33903 12.6113 6.10015 12.8679 6.08109C13.2172 6.13066 13.3335 6.30968 13.3394 6.58295C13.3016 7.10755 12.7324 7.19649 12.4125 7.23833C12.3634 7.25615 12.343 7.27788 12.4125 7.30358L13.7527 7.30942L13.821 7.34731C13.8292 7.37801 13.8015 7.35241 13.7486 7.43605C13.6957 7.51969 13.6177 7.71255 13.6136 7.84133C13.2144 7.96459 12.8014 8.01859 12.3816 8.06731C12.2358 8.13812 12.1635 8.23244 12.1935 8.33861C12.2426 8.45639 12.5656 8.57402 12.5656 8.57961C12.6269 8.61653 12.6995 8.70273 12.5482 8.87932C11.8945 8.85172 11.3879 8.58464 11.2126 8.20769C11.1597 8.16835 11.1028 8.20748 11.0663 8.25842C10.8111 8.57427 10.56 8.85868 10.1249 9.00968C9.86537 9.0719 9.59976 8.97146 9.47429 8.80834C9.39032 8.71549 9.39351 8.61297 9.36267 8.59076C9.22241 8.65031 8.01556 9.1426 8.16853 8.91328C8.46223 8.61146 8.97075 8.3898 9.41984 8.09192C9.45225 7.99212 9.51117 7.65451 9.68853 7.54454C9.69878 7.54535 9.66044 7.74282 9.66428 7.82607C9.6663 7.89442 9.65905 7.9212 9.67465 7.90363C9.70493 7.88506 10.2499 7.47402 10.292 7.34798C10.3451 7.2757 10.3079 7.09264 10.3079 7.08709C10.2057 6.83424 10.0624 6.81276 10.0092 6.68715C9.96139 6.52026 9.98303 6.32979 10.0824 6.2767C10.1706 6.19981 10.2751 6.20931 10.3715 6.29333C10.4816 6.38797 10.5793 6.57293 10.6076 6.7107C10.5887 6.7652 10.4636 6.67449 10.4202 6.70156C10.497 6.77792 10.5329 6.86603 10.5606 6.97381C10.6316 7.26241 10.61 7.3746 10.5385 7.5612C10.2966 8.04953 9.98739 8.19525 9.71687 8.37616C9.70966 8.37862 9.70486 8.50009 9.80659 8.56576C9.84168 8.60113 9.98278 8.61927 10.1487 8.56822C10.4693 8.40038 10.8021 8.09119 10.9674 7.74672C11.0153 7.48618 10.9488 7.20989 10.8782 6.96893C10.7719 6.73345 10.6467 6.39722 10.6467 6.39166C10.6426 6.24481 10.655 6.19387 10.7221 6.12061H10.722ZM7.21338 4.76252C7.36763 4.83315 7.65763 4.80309 7.64536 4.56431C7.64536 4.54322 7.63976 4.47178 7.63756 4.45241C7.60607 4.38203 7.52019 4.39943 7.50071 4.4721C7.49459 4.4959 7.51162 4.53467 7.48917 4.54663C7.47628 4.55911 7.42699 4.55176 7.42904 4.48581C7.42904 4.46478 7.41293 4.44221 7.40319 4.42885C7.39345 4.42274 7.38726 4.42105 7.36961 4.42105C7.34807 4.42186 7.34844 4.42724 7.33665 4.4446C7.33163 4.46225 7.32474 4.47951 7.32474 4.49955C7.32203 4.52304 7.31281 4.5314 7.29483 4.53488C7.27472 4.53488 7.27926 4.53699 7.26296 4.52704C7.2533 4.51685 7.24121 4.51298 7.24121 4.49565C7.24121 4.47769 7.23696 4.44861 7.23132 4.43676C7.22279 4.42594 7.20906 4.42094 7.1936 4.41711C7.10938 4.41739 7.10352 4.50964 7.10839 4.54466C7.10205 4.55127 7.0985 4.71675 7.21338 4.76252Z" fill="white"/>
<path fill-rule="evenodd" clip-rule="evenodd" d="M11.735 6.6C11.8892 6.67063 12.2564 6.62999 12.167 6.40179C12.167 6.3807 12.1614 6.30923 12.1592 6.28989C12.1277 6.21951 12.0418 6.23691 12.0223 6.30958C12.0162 6.33338 12.0332 6.37216 12.0108 6.38411C11.9979 6.39659 11.9486 6.38924 11.9506 6.32329C11.9506 6.30227 11.9345 6.2797 11.9248 6.26634C11.9151 6.26022 11.9089 6.25853 11.8912 6.25853C11.8697 6.25934 11.87 6.26472 11.8583 6.28209C11.8532 6.29973 11.8464 6.317 11.8464 6.33704C11.8436 6.36052 11.8344 6.36889 11.8164 6.37237C11.7963 6.37237 11.8009 6.37448 11.7846 6.36453C11.7749 6.35433 11.7628 6.35047 11.7628 6.33313C11.7628 6.31517 11.7586 6.28609 11.7529 6.27425C11.7444 6.26342 11.7307 6.25843 11.7152 6.25459C11.631 6.25488 11.6251 6.34713 11.63 6.38214C11.6237 6.38875 11.6201 6.55423 11.735 6.6ZM14.3717 5.83958C14.526 5.9102 14.816 5.88015 14.8037 5.64136C14.8037 5.62027 14.7981 5.54883 14.7959 5.52946C14.7644 5.45908 14.6785 5.47648 14.659 5.54915C14.6529 5.57295 14.6699 5.61173 14.6475 5.62368C14.6346 5.63616 14.5853 5.62881 14.5874 5.56286C14.5874 5.54184 14.5713 5.51927 14.5615 5.50591C14.5518 5.49979 14.5456 5.4981 14.5279 5.4981C14.5064 5.49891 14.5068 5.50429 14.495 5.52166C14.49 5.53931 14.483 5.55657 14.483 5.57661C14.4804 5.60009 14.4711 5.60846 14.4532 5.61194C14.433 5.61194 14.4376 5.61405 14.4213 5.6041C14.4116 5.5939 14.3995 5.59004 14.3995 5.5727C14.3995 5.55474 14.3953 5.52566 14.3896 5.51382C14.3811 5.50299 14.3674 5.498 14.3519 5.49416C14.2677 5.49445 14.2618 5.5867 14.2667 5.62171C14.2604 5.62832 14.2568 5.7938 14.3717 5.83958ZM15.7373 7.74961C15.4685 8.04046 15.587 8.52147 15.6477 8.62511C15.7364 8.79534 15.8077 8.9045 15.9802 8.9887C16.1373 9.09968 16.2597 9.03032 16.3271 8.95259C16.4852 8.79534 16.4871 8.39382 16.5613 8.31426C16.6134 8.16811 16.7444 8.19307 16.808 8.25783C16.8696 8.34291 16.9422 8.39775 17.0329 8.44409C17.1803 8.56897 17.3563 8.59175 17.5298 8.47798C17.6483 8.41414 17.7254 8.33166 17.7948 8.16794C17.8719 7.97001 17.8289 7.05531 17.8135 6.5132C17.8075 6.47066 17.6602 5.76772 17.6602 5.75988C17.6602 5.752 17.6408 5.40111 17.6246 5.3175C17.6217 5.28358 17.613 5.27384 17.65 5.27813C17.6893 5.30988 17.6947 5.31188 17.7192 5.32232C17.7588 5.32928 17.7943 5.26449 17.7704 5.2049L17.4024 4.55335C17.3729 4.52543 17.3348 4.49478 17.2879 4.56122C17.2432 4.59888 17.1955 4.66704 17.197 4.75469C17.2079 4.90909 17.2362 5.06617 17.247 5.22061L17.3942 6.01346C17.4406 6.57863 17.4522 7.04118 17.4985 7.60635C17.492 7.84566 17.4146 8.05431 17.3419 8.08441C17.3419 8.08441 17.2313 8.14593 17.1571 8.07797C17.1032 8.0572 16.8873 7.73256 16.8873 7.73256C16.7769 7.63543 16.7041 7.6632 16.6256 7.73256C16.409 7.93334 16.311 8.30891 16.1638 8.56798C16.1259 8.62581 16.0186 8.67528 15.8998 8.56376C15.598 8.16797 15.7749 7.6048 15.7373 7.74961ZM14.4409 4.45336C14.5791 4.50891 14.6766 4.77761 14.6448 4.90881C14.6173 5.07113 14.544 5.24642 14.4913 5.2236C14.434 5.20321 14.5303 5.06224 14.4753 4.91437C14.4447 4.81811 14.2562 4.64222 14.276 4.59037C14.2371 4.48174 14.3562 4.4342 14.4409 4.45336Z" fill="white"/>
<path fill-rule="evenodd" clip-rule="evenodd" d="M16.1822 7.9087C16.2113 7.586 16.1622 7.38923 16.1535 7.19957C16.1448 7.0099 15.9301 5.56273 15.8865 5.41922C15.834 5.14788 16.0953 5.38283 16.0667 5.22502C15.9763 5.02603 15.7514 4.73634 15.6807 4.56352C15.6382 4.48948 15.6561 4.42359 15.5609 4.54404C15.4727 4.82093 15.4421 5.04727 15.4758 5.21921C15.7024 6.35441 15.9348 7.29836 15.8979 8.37902C16.0053 8.37973 16.1292 8.14295 16.1822 7.9087ZM18.5432 4.91058C18.6692 4.9707 18.743 5.30746 18.7291 5.40368C18.704 5.57943 18.6371 5.7692 18.5892 5.74448C18.5369 5.72241 18.5996 5.48387 18.5745 5.40969C18.5467 5.30549 18.3748 5.11508 18.3929 5.05894C18.3573 4.94134 18.4659 4.88987 18.5432 4.91058ZM9.18028 7.29839C9.30077 7.34255 9.37145 7.59001 9.35812 7.66075C9.33409 7.78984 9.27012 7.9293 9.22423 7.91116C9.17428 7.89492 9.23426 7.71963 9.21028 7.66514C9.2001 7.53295 9.03285 7.4645 9.03633 7.40741C9.00513 7.30243 9.10631 7.2831 9.18028 7.29839Z" fill="white"/>
<path fill-rule="evenodd" clip-rule="evenodd" d="M12.0921 7.67002C12.2476 7.67951 12.3253 7.79665 12.1796 7.8458C12.0359 7.89302 11.8978 7.92993 11.8972 8.1293C11.9503 8.40711 11.8243 8.31176 11.7491 8.27404C11.6605 8.21297 11.4119 8.06592 11.3764 7.74846C11.3711 7.67269 11.4326 7.60892 11.5317 7.60938C11.6809 7.6483 11.9011 7.65114 12.092 7.67002H12.0921Z" fill="#1B9D00"/>
<path fill-rule="evenodd" clip-rule="evenodd" d="M5.95945 4.37315C6.13725 4.42462 6.14776 4.67549 6.13465 4.74883C6.11095 4.8827 6.04796 5.02727 6.00274 5.00842C5.95352 4.99162 6.0008 4.8099 5.97718 4.75336C5.95081 4.67398 5.80059 4.52893 5.81762 4.48618C5.78418 4.39656 5.88658 4.35733 5.95945 4.37315ZM9.47072 5.55581C9.33431 5.62665 9.28139 5.83776 9.36635 5.96074C9.44567 6.06902 9.57095 6.02887 9.58765 6.02887C9.72132 6.04493 9.8006 5.78833 9.8006 5.78833C9.8006 5.78833 9.80481 5.71619 9.6461 5.85252C9.5793 5.86455 9.57095 5.84047 9.55425 5.80436C9.54034 5.73756 9.54312 5.67077 9.57513 5.60393C9.59878 5.53981 9.54726 5.51172 9.47072 5.55581ZM10.4939 4.27612C10.4254 4.32024 10.2889 4.45594 10.2847 4.61232C10.2806 4.70052 10.2635 4.70024 10.3236 4.75639C10.3671 4.81658 10.4109 4.81116 10.4987 4.76704C10.5491 4.73139 10.5661 4.70773 10.5831 4.64797C10.604 4.54777 10.4727 4.6955 10.456 4.58398C10.4268 4.48041 10.5111 4.43801 10.5904 4.33782C10.593 4.26916 10.5915 4.22054 10.4939 4.27612ZM11.3183 4.41674C11.2887 4.47939 11.2533 4.80673 11.2592 4.80673C11.2356 4.90426 11.3655 4.94599 11.4246 4.82062C11.5132 4.5908 11.5132 4.49331 11.519 4.39579C11.4915 4.24729 11.3872 4.25193 11.3183 4.41674ZM16.5155 6.95573C16.5332 6.93871 17.2479 6.45113 17.2479 6.45113C17.3207 6.42656 17.3049 6.7025 17.2715 6.7006C17.2853 6.75537 16.5667 7.22408 16.5155 7.2052C16.4801 7.22977 16.4446 7.01623 16.5155 6.95573H16.5155ZM17.167 6.95151C17.293 7.01163 17.3432 7.3654 17.3292 7.46163C17.3337 7.64873 17.2078 7.79877 17.1598 7.7741C17.1076 7.75202 17.1644 7.54182 17.1393 7.46764C17.1115 7.36343 17.0045 7.16733 17.0225 7.11119C16.9871 6.99359 17.0897 6.9308 17.167 6.95151ZM12.9164 8.47518C12.9661 8.40543 13.1196 8.30506 13.1231 8.30506C13.194 8.27103 13.2632 8.33174 13.259 8.32774C13.2707 8.3958 13.2141 8.45911 13.2319 8.54985C13.2473 8.58642 13.2587 8.62702 13.3285 8.61155C13.442 8.52584 13.5471 8.52032 13.6606 8.51487C13.7475 8.5199 13.751 8.66123 13.696 8.66228C13.4865 8.70598 13.3926 8.75984 13.243 8.81465C13.1721 8.85434 13.1113 8.804 13.1113 8.79834C13.1113 8.79268 13.0698 8.75974 13.0988 8.6696C13.1039 8.59731 13.0736 8.55769 13.0109 8.56588C12.9636 8.59042 12.922 8.60667 12.8984 8.55453C12.8891 8.51603 12.8861 8.49729 12.9164 8.47518ZM17.9188 8.66573C17.9495 8.70313 17.9693 8.73776 17.9164 8.79922C17.8663 8.8433 17.8309 8.86759 17.7809 8.91168C17.7572 8.95042 17.742 9.0092 17.8144 9.02794C17.9481 9.06401 18.2571 8.87157 18.2571 8.86756C18.3072 8.83149 18.2905 8.76332 18.2863 8.76332C18.2571 8.73126 18.1913 8.75031 18.147 8.74511C18.1259 8.74511 18.0567 8.73506 18.0896 8.67627C18.1171 8.63971 18.127 8.61732 18.1456 8.57225C18.1665 8.52816 18.1485 8.49877 18.0733 8.47469C17.9968 8.46133 17.9662 8.46801 17.8813 8.47469C17.8353 8.48404 17.8197 8.50376 17.8113 8.5572C17.8146 8.63827 17.866 8.63367 17.9188 8.66573Z" fill="white"/>
<path fill-rule="evenodd" clip-rule="evenodd" d="M12.9437 6.67071C12.9242 6.70323 12.8579 6.70165 12.7958 6.66719C12.7337 6.63274 12.6992 6.57835 12.7188 6.5458C12.7384 6.51324 12.8046 6.51486 12.8667 6.54938C12.9288 6.58391 12.9633 6.63819 12.9437 6.67071ZM9.68183 4.78654C9.6447 4.79526 9.59618 4.76348 9.57343 4.71556C9.55069 4.66765 9.56241 4.62173 9.59951 4.61301C9.63661 4.60429 9.68517 4.63604 9.70791 4.68396C9.73065 4.73188 9.71897 4.77783 9.68183 4.78654Z" fill="#259F00"/>
<path fill-rule="evenodd" clip-rule="evenodd" d="M16.1343 13.1826C16.4767 13.1986 16.7985 13.1863 17.1409 13.2024C17.2029 13.253 17.1586 13.3773 17.1173 13.3684C17.0059 13.3657 16.9418 13.3631 16.8304 13.3604C16.8266 13.2557 16.5482 13.2728 16.5562 13.3637C16.4059 13.3811 16.2703 13.3587 16.12 13.3533C16.0756 13.3002 16.0813 13.2046 16.1343 13.1826H16.1343Z" fill="#209000"/>
</g>
</g>
<defs>
<clipPath id="clip0_92_145">
<rect width="25" height="18" fill="white"/>
</clipPath>
</defs>
</svg>
