<svg width="16" height="16" viewBox="0 0 16 16" fill="none" xmlns="http://www.w3.org/2000/svg">
<path fill-rule="evenodd" clip-rule="evenodd" d="M7.175 1.02706H5.82C5.73375 1.02706 5.66375 1.097 5.66375 1.18331V1.71034H3.11937C3.03312 1.71034 2.96312 1.78031 2.96312 1.86659V15.5C2.96312 15.5863 3.03312 15.6562 3.11937 15.6562H12.8806C12.9669 15.6562 13.0369 15.5863 13.0369 15.5V1.86659C13.0369 1.78031 12.9669 1.71034 12.8806 1.71034H10.3362V1.18331C10.3362 1.097 10.2662 1.02706 10.18 1.02706H8.825C8.75187 0.638251 8.41 0.34375 8 0.34375C7.59 0.34375 7.24812 0.638251 7.175 1.02706ZM10.3362 2.02284V2.38719C10.3362 2.4735 10.2662 2.54344 10.18 2.54344H5.82C5.73375 2.54344 5.66375 2.4735 5.66375 2.38719V2.02284H3.27562V15.3438H12.7244V2.02284H10.3362ZM11.875 11.8083C11.875 11.722 11.805 11.6521 11.7187 11.6521H10.4687C10.3825 11.6521 10.3125 11.722 10.3125 11.8083V13.0583C10.3125 13.1446 10.3825 13.2146 10.4687 13.2146H11.7187C11.805 13.2146 11.875 13.1446 11.875 13.0583V11.8083ZM11.5625 11.9646V12.902L10.625 12.9021V11.9646H11.5625ZM4.28125 12.5896H8C8.08625 12.5896 8.15625 12.5195 8.15625 12.4333C8.15625 12.3471 8.08625 12.2771 8 12.2771H4.28125C4.195 12.2771 4.125 12.3471 4.125 12.4333C4.125 12.5195 4.195 12.5896 4.28125 12.5896ZM11.875 9.30831C11.875 9.222 11.805 9.15206 11.7187 9.15206H10.4687C10.3825 9.15206 10.3125 9.222 10.3125 9.30831V10.5583C10.3125 10.6446 10.3825 10.7146 10.4687 10.7146H11.7187C11.805 10.7146 11.875 10.6446 11.875 10.5583V9.30831ZM11.5625 9.46456V10.402L10.625 10.4021V9.46456H11.5625ZM4.28125 10.0896H8C8.08625 10.0896 8.15625 10.0195 8.15625 9.93331C8.15625 9.84706 8.08625 9.77706 8 9.77706H4.28125C4.195 9.77706 4.125 9.84706 4.125 9.93331C4.125 10.0195 4.195 10.0896 4.28125 10.0896ZM11.875 6.80831C11.875 6.722 11.805 6.65206 11.7187 6.65206H10.4687C10.3825 6.65206 10.3125 6.722 10.3125 6.80831V8.05831C10.3125 8.14459 10.3825 8.21456 10.4687 8.21456H11.7187C11.805 8.21456 11.875 8.14459 11.875 8.05831V6.80831ZM11.5625 6.96456V7.90203L10.625 7.90206V6.96456H11.5625ZM4.28125 7.58956H8C8.08625 7.58956 8.15625 7.51953 8.15625 7.43331C8.15625 7.34706 8.08625 7.27706 8 7.27706H4.28125C4.195 7.27706 4.125 7.34706 4.125 7.43331C4.125 7.51953 4.195 7.58956 4.28125 7.58956ZM11.875 4.30831C11.875 4.222 11.805 4.15206 11.7187 4.15206H10.4687C10.3825 4.15206 10.3125 4.222 10.3125 4.30831V5.55831C10.3125 5.64459 10.3825 5.71456 10.4687 5.71456H11.7187C11.805 5.71456 11.875 5.64459 11.875 5.55831V4.30831ZM11.5625 4.46456V5.40203L10.625 5.40206V4.46456H11.5625ZM4.28125 5.08956H8C8.08625 5.08956 8.15625 5.01953 8.15625 4.93331C8.15625 4.84706 8.08625 4.77706 8 4.77706H4.28125C4.195 4.77706 4.125 4.84706 4.125 4.93331C4.125 5.01953 4.195 5.08956 4.28125 5.08956ZM5.97625 1.86662V1.33956H10.0237V2.23094H5.97625V1.86662ZM8.50343 1.02706C8.43687 0.812345 8.23656 0.65625 8 0.65625C7.76343 0.65625 7.56312 0.812345 7.49656 1.02706H8.50343Z" fill="#670379" stroke="#670379" stroke-width="0.5"/>
</svg>
