<svg width="30" height="30" viewBox="0 0 30 30" fill="none" xmlns="http://www.w3.org/2000/svg">
<path d="M13.125 16.6406C13.3736 16.6406 13.6121 16.5419 13.7879 16.366C13.9637 16.1902 14.0625 15.9518 14.0625 15.7031C14.0625 15.4545 13.9637 15.216 13.7879 15.0402C13.6121 14.8644 13.3736 14.7656 13.125 14.7656C12.2055 14.7786 11.2943 14.5899 10.4556 14.2129C11.4073 13.1672 12.0978 11.9109 12.4703 10.5469H13.125C13.3736 10.5469 13.6121 10.4481 13.7879 10.2723C13.9637 10.0965 14.0625 9.85802 14.0625 9.60938C14.0625 9.36073 13.9637 9.12228 13.7879 8.94646C13.6121 8.77065 13.3736 8.67188 13.125 8.67188H9.84375V7.73438C9.84375 7.48573 9.74498 7.24728 9.56916 7.07146C9.39335 6.89565 9.15489 6.79688 8.90625 6.79688C8.65761 6.79688 8.41915 6.89565 8.24334 7.07146C8.06752 7.24728 7.96875 7.48573 7.96875 7.73438V8.67188H4.6875C4.43886 8.67188 4.2004 8.77065 4.02459 8.94646C3.84877 9.12228 3.75 9.36073 3.75 9.60938C3.75 9.85802 3.84877 10.0965 4.02459 10.2723C4.2004 10.4481 4.43886 10.5469 4.6875 10.5469H10.4981C10.1653 11.5129 9.62349 12.3936 8.91126 13.1263C8.44311 12.6536 8.04994 12.1122 7.74536 11.5208C7.68872 11.4113 7.61105 11.3141 7.51679 11.2347C7.42253 11.1553 7.31354 11.0952 7.19605 11.058C7.07856 11.0207 6.95488 11.007 6.83208 11.0176C6.70929 11.0282 6.58979 11.063 6.48043 11.1198C6.37107 11.1767 6.27399 11.2545 6.19476 11.3489C6.11552 11.4433 6.05568 11.5524 6.01866 11.67C5.98164 11.7876 5.96816 11.9113 5.979 12.034C5.98985 12.1568 6.0248 12.2763 6.08185 12.3855C6.42266 13.0478 6.84724 13.6634 7.34513 14.2174C6.51008 14.5925 5.60283 14.7797 4.6875 14.7656C4.43886 14.7656 4.2004 14.8644 4.02459 15.0402C3.84877 15.216 3.75 15.4545 3.75 15.7031C3.75 15.9518 3.84877 16.1902 4.02459 16.366C4.2004 16.5419 4.43886 16.6406 4.6875 16.6406C6.16725 16.6687 7.62477 16.2777 8.8918 15.5128C10.167 16.2835 11.6354 16.6748 13.125 16.6406Z" fill="#670379"/>
<path d="M29.0625 9.60938H19.6875C19.4389 9.60938 19.2004 9.70815 19.0246 9.88396C18.8488 10.0598 18.75 10.2982 18.75 10.5469C18.75 10.7955 18.8488 11.034 19.0246 11.2098C19.2004 11.3856 19.4389 11.4844 19.6875 11.4844H28.125V25.0781H14.7404L17.6889 19.9182C17.7644 19.7744 17.8067 19.6155 17.8125 19.4531V3.98438C17.8125 3.73574 17.7137 3.49729 17.5379 3.32148C17.3621 3.14566 17.1236 3.04689 16.875 3.04688H0.9375C0.688863 3.04689 0.450414 3.14566 0.274601 3.32148C0.0987885 3.49729 1.24309e-05 3.73574 0 3.98438L0 19.4531C1.24309e-05 19.7018 0.0987885 19.9402 0.274601 20.116C0.450414 20.2918 0.688863 20.3906 0.9375 20.3906H12.1875V26.0156C12.1914 26.2632 12.2915 26.4995 12.4667 26.6745C12.6418 26.8495 12.8783 26.9494 13.1258 26.9531H29.0625C29.3111 26.9531 29.5496 26.8543 29.7254 26.6785C29.9012 26.5027 30 26.2643 30 26.0156V10.5469C30 10.2982 29.9012 10.0598 29.7254 9.88398C29.5496 9.70816 29.3111 9.60939 29.0625 9.60938ZM1.875 4.92188H15.9375V18.5156H1.875V4.92188ZM15.2596 20.3906L14.0625 22.4856V20.3906H15.2596Z" fill="#670379"/>
<path d="M19.6875 18.9844V22.2656C19.6875 22.5143 19.7863 22.7527 19.9621 22.9285C20.1379 23.1044 20.3764 23.2031 20.625 23.2031C20.8736 23.2031 21.1121 23.1044 21.2879 22.9285C21.4637 22.7527 21.5625 22.5143 21.5625 22.2656V21.3281H24.375V22.2656C24.375 22.5143 24.4738 22.7527 24.6496 22.9285C24.8254 23.1044 25.0639 23.2031 25.3125 23.2031C25.5611 23.2031 25.7996 23.1044 25.9754 22.9285C26.1512 22.7527 26.25 22.5143 26.25 22.2656V18.9844C26.25 18.1141 25.9043 17.2795 25.2889 16.6642C24.6736 16.0488 23.839 15.7031 22.9688 15.7031C22.0985 15.7031 21.2639 16.0488 20.6486 16.6642C20.0332 17.2795 19.6875 18.1141 19.6875 18.9844ZM22.9688 17.5781C23.3416 17.5785 23.699 17.7268 23.9627 17.9905C24.2263 18.2541 24.3746 18.6115 24.375 18.9844V19.4531H21.5625V18.9844C21.5629 18.6115 21.7112 18.2541 21.9748 17.9905C22.2385 17.7268 22.5959 17.5785 22.9688 17.5781Z" fill="#670379"/>
<path d="M22.9688 14.7656C23.4865 14.7656 23.9062 14.3459 23.9062 13.8281C23.9062 13.3104 23.4865 12.8906 22.9688 12.8906C22.451 12.8906 22.0312 13.3104 22.0312 13.8281C22.0312 14.3459 22.451 14.7656 22.9688 14.7656Z" fill="#670379"/>
</svg>
