<svg width="25" height="18" viewBox="0 0 25 18" fill="none" xmlns="http://www.w3.org/2000/svg">
<g clip-path="url(#clip0_92_169)">
<path d="M24.1666 0.899902H0.833313V2.1464H24.1666V0.899902Z" fill="#B22234"/>
<path d="M24.1666 2.14648H0.833313V3.39298H24.1666V2.14648Z" fill="white"/>
<path d="M24.1666 3.39307H0.833313V4.63957H24.1666V3.39307Z" fill="#B22234"/>
<path d="M24.1666 4.6394H0.833313V5.8859H24.1666V4.6394Z" fill="white"/>
<path d="M24.1666 5.88599H0.833313V7.13249H24.1666V5.88599Z" fill="#B22234"/>
<path d="M24.1666 7.13257H0.833313V8.37907H24.1666V7.13257Z" fill="white"/>
<path d="M24.1666 8.37891H0.833313V9.62541H24.1666V8.37891Z" fill="#B22234"/>
<path d="M24.1666 9.62549H0.833313V10.872H24.1666V9.62549Z" fill="white"/>
<path d="M24.1666 10.8721H0.833313V12.1186H24.1666V10.8721Z" fill="#B22234"/>
<path d="M24.1666 12.1184H0.833313V13.3649H24.1666V12.1184Z" fill="white"/>
<path d="M24.1666 13.365H0.833313V14.6115H24.1666V13.365Z" fill="#B22234"/>
<path d="M24.1666 14.6116H0.833313V15.8581H24.1666V14.6116Z" fill="white"/>
<path d="M12.5 0.899902H0.833313V9.6254H12.5V0.899902Z" fill="#3C3B6E"/>
<path d="M2.08335 2.23928L1.81252 2.45078L1.91502 2.10698L1.64502 1.88918H1.97919L2.08335 1.55078L2.18752 1.88918H2.52169L2.25169 2.10698L2.35419 2.45078L2.08335 2.23928Z" fill="white"/>
<path d="M3.91667 2.23928L3.64583 2.45078L3.74833 2.10698L3.47833 1.88918H3.8125L3.91667 1.55078L4.02083 1.88918H4.355L4.085 2.10698L4.1875 2.45078L3.91667 2.23928Z" fill="white"/>
<path d="M5.74998 2.23928L5.47915 2.45078L5.58165 2.10698L5.31165 1.88918H5.64581L5.74998 1.55078L5.85415 1.88918H6.18831L5.91831 2.10698L6.02081 2.45078L5.74998 2.23928Z" fill="white"/>
<path d="M7.58335 2.23928L7.31252 2.45078L7.41502 2.10698L7.14502 1.88918H7.47919L7.58335 1.55078L7.68752 1.88918H8.02169L7.75169 2.10698L7.85419 2.45078L7.58335 2.23928Z" fill="white"/>
<path d="M9.41667 2.23928L9.14583 2.45078L9.24833 2.10698L8.97833 1.88918H9.3125L9.41667 1.55078L9.52083 1.88918H9.855L9.585 2.10698L9.6875 2.45078L9.41667 2.23928Z" fill="white"/>
<path d="M11.25 2.23928L10.9791 2.45078L11.0816 2.10698L10.8116 1.88918H11.1458L11.25 1.55078L11.3541 1.88918H11.6883L11.4183 2.10698L11.5208 2.45078L11.25 2.23928Z" fill="white"/>
<path d="M2.99998 3.32734L2.72915 3.53794L2.83165 3.19504L2.56165 2.97634H2.89581L2.99998 2.63794L3.10415 2.97634H3.43831L3.16831 3.19504L3.27081 3.53794L2.99998 3.32734Z" fill="white"/>
<path d="M4.83335 3.32734L4.56252 3.53794L4.66502 3.19504L4.39502 2.97634H4.72919L4.83335 2.63794L4.93752 2.97634H5.27169L5.00169 3.19504L5.10419 3.53794L4.83335 3.32734Z" fill="white"/>
<path d="M6.66667 3.32734L6.39583 3.53794L6.49833 3.19504L6.22833 2.97634H6.5625L6.66667 2.63794L6.77083 2.97634H7.105L6.835 3.19504L6.9375 3.53794L6.66667 3.32734Z" fill="white"/>
<path d="M8.49998 3.32734L8.22915 3.53794L8.33165 3.19504L8.06165 2.97634H8.39581L8.49998 2.63794L8.60415 2.97634H8.93831L8.66831 3.19504L8.77081 3.53794L8.49998 3.32734Z" fill="white"/>
<path d="M10.3334 3.32734L10.0625 3.53794L10.165 3.19504L9.89502 2.97634H10.2292L10.3334 2.63794L10.4375 2.97634H10.7717L10.5017 3.19504L10.6042 3.53794L10.3334 3.32734Z" fill="white"/>
<path d="M2.08335 4.41457L1.81252 4.62607L1.91502 4.28227L1.64502 4.06357H1.97919L2.08335 3.72607L2.18752 4.06357H2.52169L2.25169 4.28227L2.35419 4.62607L2.08335 4.41457Z" fill="white"/>
<path d="M3.91667 4.41457L3.64583 4.62607L3.74833 4.28227L3.47833 4.06357H3.8125L3.91667 3.72607L4.02083 4.06357H4.355L4.085 4.28227L4.1875 4.62607L3.91667 4.41457Z" fill="white"/>
<path d="M5.75004 4.41457L5.47921 4.62607L5.58171 4.28227L5.31171 4.06357H5.64587L5.75004 3.72607L5.85421 4.06357H6.18837L5.91837 4.28227L6.02087 4.62607L5.75004 4.41457Z" fill="white"/>
<path d="M7.58335 4.41457L7.31252 4.62607L7.41502 4.28227L7.14502 4.06357H7.47919L7.58335 3.72607L7.68752 4.06357H8.02169L7.75169 4.28227L7.85419 4.62607L7.58335 4.41457Z" fill="white"/>
<path d="M9.41667 4.41457L9.14583 4.62607L9.24833 4.28227L8.97833 4.06357H9.3125L9.41667 3.72607L9.52083 4.06357H9.855L9.585 4.28227L9.6875 4.62607L9.41667 4.41457Z" fill="white"/>
<path d="M11.25 4.41457L10.9792 4.62607L11.0817 4.28227L10.8117 4.06357H11.1459L11.25 3.72607L11.3542 4.06357H11.6884L11.4184 4.28227L11.5209 4.62607L11.25 4.41457Z" fill="white"/>
<path d="M2.99998 5.50173L2.72915 5.71323L2.83165 5.36943L2.56165 5.15163H2.89581L2.99998 4.81323L3.10415 5.15163H3.43831L3.16831 5.36943L3.27081 5.71323L2.99998 5.50173Z" fill="white"/>
<path d="M4.83329 5.50173L4.56246 5.71323L4.66496 5.36943L4.39496 5.15163H4.72913L4.83329 4.81323L4.93746 5.15163H5.27163L5.00162 5.36943L5.10413 5.71323L4.83329 5.50173Z" fill="white"/>
<path d="M6.66667 5.50173L6.39583 5.71323L6.49833 5.36943L6.22833 5.15163H6.5625L6.66667 4.81323L6.77083 5.15163H7.105L6.835 5.36943L6.9375 5.71323L6.66667 5.50173Z" fill="white"/>
<path d="M8.49998 5.50173L8.22915 5.71323L8.33165 5.36943L8.06165 5.15163H8.39581L8.49998 4.81323L8.60415 5.15163H8.93831L8.66831 5.36943L8.77081 5.71323L8.49998 5.50173Z" fill="white"/>
<path d="M10.3333 5.50173L10.0625 5.71323L10.165 5.36943L9.89496 5.15163H10.2291L10.3333 4.81323L10.4375 5.15163H10.7716L10.5016 5.36943L10.6041 5.71323L10.3333 5.50173Z" fill="white"/>
<path d="M2.08335 6.58979L1.81252 6.80039L1.91502 6.45749L1.64502 6.23879H1.97919L2.08335 5.90039L2.18752 6.23879H2.52169L2.25169 6.45749L2.35419 6.80039L2.08335 6.58979Z" fill="white"/>
<path d="M3.91667 6.58979L3.64583 6.80039L3.74833 6.45749L3.47833 6.23879H3.8125L3.91667 5.90039L4.02083 6.23879H4.355L4.085 6.45749L4.1875 6.80039L3.91667 6.58979Z" fill="white"/>
<path d="M5.75004 6.58979L5.47921 6.80039L5.58171 6.45749L5.31171 6.23879H5.64587L5.75004 5.90039L5.85421 6.23879H6.18837L5.91837 6.45749L6.02087 6.80039L5.75004 6.58979Z" fill="white"/>
<path d="M7.58335 6.58979L7.31252 6.80039L7.41502 6.45749L7.14502 6.23879H7.47919L7.58335 5.90039L7.68752 6.23879H8.02169L7.75169 6.45749L7.85419 6.80039L7.58335 6.58979Z" fill="white"/>
<path d="M9.41667 6.58979L9.14583 6.80039L9.24833 6.45749L8.97833 6.23879H9.3125L9.41667 5.90039L9.52083 6.23879H9.855L9.585 6.45749L9.6875 6.80039L9.41667 6.58979Z" fill="white"/>
<path d="M11.25 6.58979L10.9792 6.80039L11.0817 6.45749L10.8117 6.23879H11.1459L11.25 5.90039L11.3542 6.23879H11.6884L11.4184 6.45749L11.5209 6.80039L11.25 6.58979Z" fill="white"/>
<path d="M2.08335 8.76418L1.81252 8.97568L1.91502 8.63188L1.64502 8.41408H1.97919L2.08335 8.07568L2.18752 8.41408H2.52169L2.25169 8.63188L2.35419 8.97568L2.08335 8.76418Z" fill="white"/>
<path d="M3.91667 8.76418L3.64583 8.97568L3.74833 8.63188L3.47833 8.41408H3.8125L3.91667 8.07568L4.02083 8.41408H4.355L4.085 8.63188L4.1875 8.97568L3.91667 8.76418Z" fill="white"/>
<path d="M5.75004 8.76418L5.47921 8.97568L5.58171 8.63188L5.31171 8.41408H5.64587L5.75004 8.07568L5.85421 8.41408H6.18837L5.91837 8.63188L6.02087 8.97568L5.75004 8.76418Z" fill="white"/>
<path d="M7.58335 8.76418L7.31252 8.97568L7.41502 8.63188L7.14502 8.41408H7.47919L7.58335 8.07568L7.68752 8.41408H8.02169L7.75169 8.63188L7.85419 8.97568L7.58335 8.76418Z" fill="white"/>
<path d="M9.41667 8.76418L9.14583 8.97568L9.24833 8.63188L8.97833 8.41408H9.3125L9.41667 8.07568L9.52083 8.41408H9.855L9.585 8.63188L9.6875 8.97568L9.41667 8.76418Z" fill="white"/>
<path d="M11.25 8.76418L10.9792 8.97568L11.0817 8.63188L10.8117 8.41408H11.1459L11.25 8.07568L11.3542 8.41408H11.6884L11.4184 8.63188L11.5209 8.97568L11.25 8.76418Z" fill="white"/>
<path d="M2.99998 7.67703L2.72915 7.88853L2.83165 7.54473L2.56165 7.32603H2.89581L2.99998 6.98853L3.10415 7.32603H3.43831L3.16831 7.54473L3.27081 7.88853L2.99998 7.67703Z" fill="white"/>
<path d="M4.83329 7.67703L4.56246 7.88853L4.66496 7.54473L4.39496 7.32603H4.72913L4.83329 6.98853L4.93746 7.32603H5.27163L5.00162 7.54473L5.10413 7.88853L4.83329 7.67703Z" fill="white"/>
<path d="M6.66667 7.67703L6.39583 7.88853L6.49833 7.54473L6.22833 7.32603H6.5625L6.66667 6.98853L6.77083 7.32603H7.105L6.835 7.54473L6.9375 7.88853L6.66667 7.67703Z" fill="white"/>
<path d="M8.49998 7.67703L8.22915 7.88853L8.33165 7.54473L8.06165 7.32603H8.39581L8.49998 6.98853L8.60415 7.32603H8.93831L8.66831 7.54473L8.77081 7.88853L8.49998 7.67703Z" fill="white"/>
<path d="M10.3333 7.67703L10.0625 7.88853L10.165 7.54473L9.89496 7.32603H10.2291L10.3333 6.98853L10.4375 7.32603H10.7716L10.5016 7.54473L10.6041 7.88853L10.3333 7.67703Z" fill="white"/>
<path d="M24.1666 15.8579H0.833313V17.0999H24.1666V15.8579Z" fill="#B22234"/>
</g>
<defs>
<clipPath id="clip0_92_169">
<rect width="25" height="18" fill="white"/>
</clipPath>
</defs>
</svg>
