<svg width="16" height="16" viewBox="0 0 16 16" fill="none" xmlns="http://www.w3.org/2000/svg">
<g clip-path="url(#clip0_14_306)">
<path d="M14.8065 16H4.42686C4.29311 16 4.18436 15.8915 4.18436 15.7575C4.18436 15.6237 4.29279 15.515 4.42686 15.515H14.8065C15.1875 15.515 15.4847 15.2428 15.5128 14.8675C15.5159 14.8297 15.5159 14.7925 15.5134 14.7556L14.9634 6.81248L14.7947 4.37529C14.7672 3.97967 14.4484 3.64186 14.0531 3.58936C14.0512 3.58904 14.049 3.58873 14.0472 3.58842C14.0387 3.58748 14.0303 3.58654 14.0215 3.58561C14.0181 3.58529 14.0147 3.58498 14.0112 3.58467C14.01 3.58436 14.0084 3.58436 14.0072 3.58436C14.0028 3.58404 13.9984 3.58373 13.9944 3.58342H13.9919C13.9878 3.58342 13.9837 3.58311 13.9797 3.58311C13.9784 3.58311 13.9772 3.58311 13.9762 3.58311C13.9665 3.58279 13.9569 3.58217 13.9472 3.58217H8.50748C8.37373 3.58217 8.26498 3.47373 8.26498 3.33967C8.26498 3.20592 8.37342 3.09717 8.50748 3.09717H13.9472C13.9628 3.09717 13.9781 3.09779 13.9937 3.09842C13.9965 3.09842 13.9994 3.09842 14.0025 3.09873C14.005 3.09873 14.0075 3.09873 14.0097 3.09904C14.0175 3.09936 14.0253 3.09998 14.0331 3.10029C14.0422 3.10092 14.0512 3.10154 14.0603 3.10248C14.0625 3.10279 14.0644 3.10279 14.0665 3.10311C14.0831 3.10467 14.0987 3.10654 14.1147 3.10873C14.1178 3.10904 14.1212 3.10967 14.1244 3.11029C14.7403 3.19561 15.2356 3.72404 15.2784 4.34217L15.4472 6.77936L15.9969 14.7219C16.0012 14.7828 16.0009 14.8453 15.9959 14.9059C15.9494 15.5287 15.4378 16 14.8065 16ZM14.0159 3.09904C14.0162 3.09904 14.0169 3.09904 14.0172 3.09904C14.0169 3.09936 14.0162 3.09936 14.0159 3.09904Z" fill="#670379"/>
<path d="M11.8559 15.9998H1.47624C1.13437 15.9998 0.831865 15.8652 0.62499 15.6208C0.41499 15.3723 0.33124 15.0448 0.389365 14.6986L1.57061 7.68484C1.5928 7.55297 1.71811 7.46359 1.84999 7.48609C1.98187 7.50828 2.07093 7.63328 2.04874 7.76547L0.86749 14.7792C0.833428 14.9823 0.87874 15.1702 0.99499 15.308C1.10812 15.4417 1.27905 15.5155 1.47593 15.5155H11.8556C12.2969 15.5155 12.7325 15.1414 12.8072 14.6989L14.0316 7.42922L14.5553 4.31891C14.6166 3.95547 14.4216 3.65766 14.0809 3.59453C14.0719 3.59297 14.0622 3.59141 14.0522 3.58984C14.0503 3.58953 14.0484 3.58922 14.0466 3.58891C14.0384 3.58797 14.03 3.58703 14.0216 3.58609C14.0181 3.58578 14.0147 3.58547 14.0112 3.58516C14.01 3.58484 14.0084 3.58484 14.0072 3.58484C14.0037 3.58484 14.0003 3.58453 13.9969 3.58422C13.9937 3.58391 13.9906 3.58391 13.9878 3.58391C13.9856 3.58391 13.9831 3.58359 13.9809 3.58359C13.9794 3.58359 13.9775 3.58359 13.9762 3.58328C13.9666 3.58297 13.9569 3.58266 13.9472 3.58266H8.50749C8.37374 3.58266 8.26499 3.47422 8.26499 3.34016C8.26499 3.20641 8.37343 3.09766 8.50749 3.09766H13.9472C13.9625 3.09766 13.9781 3.09797 13.9934 3.09859C13.9978 3.09859 14.0025 3.09891 14.0078 3.09922C14.0159 3.09953 14.0241 3.09984 14.0322 3.10047C14.0416 3.10109 14.0509 3.10172 14.0603 3.10266C14.0625 3.10266 14.0644 3.10297 14.0666 3.10328C14.0831 3.10516 14.0994 3.10672 14.1153 3.10891C14.1187 3.10922 14.1219 3.10984 14.1253 3.11047C14.1397 3.11266 14.1541 3.11484 14.1687 3.11766C14.7669 3.22828 15.1384 3.77922 15.0337 4.39953L13.2859 14.7795C13.1703 15.4636 12.5422 15.9998 11.8559 15.9998ZM13.9634 3.58141C13.9669 3.58172 13.97 3.58203 13.9731 3.58234C13.9697 3.58234 13.9666 3.58203 13.9634 3.58141Z" fill="#670379"/>
<path d="M3.88967 11.3691C3.55779 11.3691 3.26467 11.2385 3.06373 11.001C2.85998 10.76 2.77873 10.4422 2.83529 10.106C2.94686 9.44284 3.55529 8.92346 4.21967 8.92346C4.55154 8.92346 4.84467 9.05409 5.04561 9.29159C5.24936 9.53252 5.33061 9.85034 5.27404 10.1866C5.16248 10.8497 4.55436 11.3691 3.88967 11.3691ZM4.21998 9.40846C3.79967 9.40846 3.38467 9.76471 3.31342 10.1866C3.28092 10.3794 3.32373 10.5575 3.43404 10.6878C3.54123 10.8144 3.70311 10.8841 3.88967 10.8841C4.30998 10.8841 4.72498 10.5278 4.79623 10.106C4.82873 9.91315 4.78592 9.73502 4.67561 9.60471C4.56842 9.47815 4.40686 9.40846 4.21998 9.40846Z" fill="#670379"/>
<path d="M7.41405 11.3691C7.08218 11.3691 6.78905 11.2385 6.58812 11.001C6.38437 10.76 6.30312 10.4422 6.35968 10.106C6.47124 9.44284 7.07937 8.92346 7.74405 8.92346C8.07593 8.92346 8.36905 9.05409 8.56999 9.29159C8.77374 9.53252 8.85499 9.85034 8.79843 10.1866C8.68718 10.8497 8.07905 11.3691 7.41405 11.3691ZM7.74437 9.40846C7.32405 9.40846 6.90905 9.76471 6.8378 10.1866C6.8053 10.3794 6.84812 10.5575 6.95843 10.6878C7.06562 10.8144 7.22749 10.8841 7.41405 10.8841C7.83437 10.8841 8.24937 10.5278 8.32062 10.106C8.35312 9.91315 8.3103 9.73502 8.19999 9.60471C8.09312 9.47815 7.93124 9.40846 7.74437 9.40846Z" fill="#670379"/>
<path d="M10.9387 11.3691C10.6069 11.3691 10.3137 11.2385 10.1128 11.001C9.90905 10.76 9.8278 10.4422 9.88437 10.106C9.99593 9.44284 10.6044 8.92346 11.2687 8.92346C11.6006 8.92346 11.8937 9.05409 12.0947 9.29159C12.2984 9.53252 12.3797 9.85034 12.3231 10.1866C12.2116 10.8497 11.6034 11.3691 10.9387 11.3691ZM11.2687 9.40846C10.8484 9.40846 10.4334 9.76471 10.3622 10.1866C10.3297 10.3794 10.3725 10.5575 10.4828 10.6878C10.59 10.8144 10.7519 10.8844 10.9384 10.8844C11.3587 10.8844 11.7737 10.5281 11.8447 10.1063C11.8772 9.91346 11.8344 9.73534 11.7241 9.60502C11.6175 9.47815 11.4556 9.40846 11.2687 9.40846Z" fill="#670379"/>
<path d="M3.31655 14.7735C2.98467 14.7735 2.69155 14.6429 2.49061 14.4054C2.28686 14.1644 2.20561 13.8466 2.26217 13.5104C2.37374 12.8473 2.98217 12.3279 3.64655 12.3279C3.97842 12.3279 4.27155 12.4585 4.47249 12.696C4.67624 12.9369 4.75749 13.2548 4.70092 13.591C4.58936 14.2541 3.98124 14.7735 3.31655 14.7735ZM3.64655 12.8129C3.22624 12.8129 2.81124 13.1691 2.73999 13.591C2.70749 13.7838 2.7503 13.9619 2.86061 14.0923C2.9678 14.2188 3.12967 14.2885 3.31624 14.2885C3.73655 14.2885 4.15155 13.9323 4.22249 13.5104C4.25499 13.3176 4.21217 13.1394 4.10186 13.0091C3.9953 12.8826 3.83342 12.8129 3.64655 12.8129Z" fill="#670379"/>
<path d="M6.84093 14.7735C6.50906 14.7735 6.21593 14.6429 6.015 14.4054C5.81125 14.1644 5.73 13.8466 5.78656 13.5104C5.89812 12.8473 6.50625 12.3279 7.17093 12.3279C7.50281 12.3279 7.79593 12.4585 7.99687 12.696C8.20062 12.9369 8.28187 13.2548 8.22531 13.591C8.11375 14.2541 7.50562 14.7735 6.84093 14.7735ZM7.17093 12.8129C6.75062 12.8129 6.33562 13.1691 6.26468 13.591C6.23218 13.7838 6.275 13.9619 6.38531 14.0923C6.4925 14.2188 6.65437 14.2885 6.84093 14.2885C7.26125 14.2885 7.67625 13.9323 7.7475 13.5104C7.78 13.3176 7.73718 13.1394 7.62687 13.0091C7.51968 12.8826 7.35781 12.8129 7.17093 12.8129Z" fill="#670379"/>
<path d="M10.3653 14.7735C10.0334 14.7735 9.74029 14.6429 9.53935 14.4054C9.3356 14.1644 9.25435 13.8466 9.31091 13.5104C9.42247 12.8473 10.0306 12.3279 10.6953 12.3279C11.0272 12.3279 11.3203 12.4585 11.5212 12.696C11.725 12.9369 11.8062 13.2548 11.7497 13.591C11.6381 14.2541 11.03 14.7735 10.3653 14.7735ZM10.6956 12.8129C10.2753 12.8129 9.86029 13.1691 9.78904 13.591C9.75654 13.7838 9.79935 13.9619 9.90966 14.0923C10.0168 14.2188 10.1787 14.2885 10.3653 14.2885C10.7856 14.2885 11.2006 13.9323 11.2715 13.5104C11.304 13.3176 11.2612 13.1394 11.1509 13.0091C11.044 12.8826 10.8822 12.8129 10.6956 12.8129Z" fill="#670379"/>
<path d="M14.2706 7.7112H8.21061C8.07686 7.7112 7.96811 7.60276 7.96811 7.4687C7.96811 7.33463 8.07655 7.2262 8.21061 7.2262H14.2709C14.4047 7.2262 14.5134 7.33463 14.5134 7.4687C14.5134 7.60276 14.4047 7.7112 14.2706 7.7112Z" fill="#670379"/>
<path d="M12.4137 16C12.3522 16 12.2906 15.9766 12.2434 15.93C12.1481 15.8359 12.1472 15.6825 12.2416 15.5872L13.9172 13.8919C14.2378 13.5678 14.765 13.5669 15.0922 13.8897L15.925 14.7137C16.0203 14.8078 16.0209 14.9612 15.9269 15.0566C15.8328 15.1519 15.6794 15.1525 15.5841 15.0584L14.7512 14.2347C14.6144 14.0997 14.3944 14.0987 14.2616 14.2328L12.5859 15.9278C12.5387 15.9759 12.4762 16 12.4137 16Z" fill="#670379"/>
<path d="M4.44906 8.89781C1.99594 8.89781 0 6.90219 0 4.44906C0 1.99594 1.99594 0 4.44906 0C6.90219 0 8.89812 1.99562 8.89812 4.44906C8.89812 5.26 8.67875 6.05 8.26313 6.74062L8.72125 8.41594C8.74406 8.49938 8.72062 8.58875 8.65969 8.65031C8.59875 8.71187 8.50938 8.73625 8.42594 8.71437L6.73031 8.26906C6.04156 8.68094 5.25531 8.89781 4.44906 8.89781ZM4.44906 0.485C2.26312 0.485 0.485 2.26312 0.485 4.44906C0.485 6.635 2.26312 8.41313 4.44906 8.41313C5.19937 8.41313 5.93 8.20219 6.56187 7.80344C6.61875 7.7675 6.68781 7.75688 6.75281 7.77406L8.1425 8.13906L7.7675 6.76687C7.74937 6.70094 7.76 6.63063 7.79688 6.57281C8.20031 5.93844 8.41344 5.20406 8.41344 4.44906C8.41313 2.26312 6.63469 0.485 4.44906 0.485Z" fill="#670379"/>
<path d="M6.57564 5.60252C6.55033 5.60252 6.52439 5.59845 6.49908 5.59002L2.12689 4.13283C2.00001 4.09064 1.93126 3.95314 1.97345 3.82627C2.18845 3.18095 2.6422 2.65783 3.25033 2.35345C3.85876 2.04908 4.54939 2.00002 5.1947 2.21502C6.52689 2.65908 7.24939 4.10408 6.80533 5.43658C6.77158 5.53814 6.6772 5.60252 6.57564 5.60252ZM2.52345 3.75377L6.40876 5.04877C6.61814 4.04002 6.0422 3.00845 5.04158 2.67502C4.51908 2.50095 3.96001 2.54064 3.46751 2.78689C3.04783 2.99689 2.71908 3.33533 2.52345 3.75377Z" fill="#670379"/>
<path d="M5.26689 5.1663C5.24095 5.1663 5.21532 5.16224 5.19032 5.1538L3.43564 4.56911C3.30876 4.52692 3.24001 4.38942 3.2822 4.26255C3.48626 3.64974 3.77657 3.10286 4.09939 2.72224C4.47095 2.2838 4.86032 2.10411 5.1947 2.21536C5.52939 2.32692 5.73251 2.70442 5.7672 3.27786C5.7972 3.77599 5.70095 4.38786 5.49689 5.00067C5.47657 5.06161 5.43282 5.11224 5.37532 5.14099C5.34126 5.15755 5.30407 5.1663 5.26689 5.1663ZM3.82376 4.18724L5.10876 4.61536C5.24439 4.14099 5.30595 3.68349 5.28345 3.30661C5.25845 2.89161 5.13782 2.70692 5.04189 2.67505C4.94595 2.64317 4.73845 2.71817 4.46939 3.03536C4.22501 3.32349 3.9997 3.72661 3.82376 4.18724Z" fill="#670379"/>
<path d="M3.60284 7.23403C3.57752 7.23403 3.55159 7.22997 3.52627 7.22153C3.3994 7.17934 3.33065 7.04184 3.37284 6.91497L4.1594 4.55465C4.2019 4.42778 4.33909 4.35903 4.46596 4.40122C4.59284 4.4434 4.66159 4.5809 4.6194 4.70778L3.83284 7.06809C3.79909 7.16965 3.7044 7.23403 3.60284 7.23403Z" fill="#670379"/>
<path d="M5.11812 2.68749C5.09281 2.68749 5.06687 2.68343 5.04156 2.67499C4.91469 2.6328 4.84594 2.4953 4.88812 2.36843L5.06781 1.82968C5.11031 1.7028 5.2475 1.63405 5.37437 1.67624C5.50125 1.71843 5.57 1.85593 5.52781 1.9828L5.34812 2.52155C5.31437 2.62312 5.21969 2.68749 5.11812 2.68749Z" fill="#670379"/>
</g>
<defs>
<clipPath id="clip0_14_306">
<rect width="16" height="16" fill="white"/>
</clipPath>
</defs>
</svg>
