<svg width="19" height="20" viewBox="0 0 19 20" fill="none" xmlns="http://www.w3.org/2000/svg">
<path d="M7.92174 18.2569H3.92174C2.62562 18.2522 1.57474 17.2052 1.56522 15.9091V7.95258C1.56776 7.5187 1.76191 7.10812 2.09565 6.83085L2.8 6.30911C3.05714 6.03514 3.08329 5.61709 2.86229 5.31321C2.64129 5.00934 2.23552 4.90541 1.89565 5.06563L1.17391 5.60476C0.445876 6.16808 0.0138353 7.03216 0 7.95258V15.9178C0.00478219 18.0817 1.75781 19.8348 3.92174 19.8395H7.92174C8.35396 19.8395 8.70435 19.4892 8.70435 19.0569C8.70435 18.6247 8.35396 18.2743 7.92174 18.2743V18.2569Z" fill="#22004C"/>
<path d="M18.7913 7.93515C18.7822 7.02148 18.3642 6.15997 17.6522 5.58732L11.6435 0.796018C10.3231 -0.265339 8.44217 -0.265339 7.12176 0.796018L5.21742 2.17863C4.85963 2.43556 4.77787 2.93389 5.03481 3.29167C5.29174 3.64946 5.79007 3.73121 6.14785 3.47428L8.07829 2.0308C8.83598 1.40701 9.92929 1.40701 10.687 2.0308L16.6957 6.82211C17.0415 7.09624 17.2458 7.51128 17.2522 7.95254V15.9178C17.2522 17.2144 16.201 18.2656 14.9044 18.2656H13.1218C12.9393 18.2656 12.7913 18.1176 12.7913 17.9351V14.3438C12.7913 13.1994 11.8662 12.2704 10.7218 12.2656H8.11307C7.56188 12.2656 7.03326 12.4845 6.64352 12.8743C6.25377 13.264 6.03481 13.7927 6.03481 14.3438V15.7178C6.03481 16.15 6.38519 16.5004 6.81742 16.5004C7.24964 16.5004 7.60002 16.15 7.60002 15.7178V14.3438C7.59769 14.2086 7.6498 14.0781 7.74463 13.9816C7.83947 13.8851 7.96909 13.8308 8.10437 13.8308H10.7131C10.9916 13.8308 11.2174 14.0566 11.2174 14.3351V17.9351C11.2222 18.9835 12.0734 19.8308 13.1218 19.8308H14.8609C17.0268 19.8308 18.7826 18.075 18.7826 15.9091L18.7913 7.93515Z" fill="#22004C"/>
</svg>
