<svg width="16" height="16" viewBox="0 0 16 16" fill="none" xmlns="http://www.w3.org/2000/svg">
<g clip-path="url(#clip0_14_344)">
<path d="M8 11.5C8.49445 11.5 8.9778 11.3534 9.38893 11.0787C9.80005 10.804 10.1205 10.4135 10.3097 9.95671C10.4989 9.4999 10.5484 8.99723 10.452 8.51228C10.3555 8.02732 10.1174 7.58187 9.76777 7.23223C9.41814 6.8826 8.97268 6.6445 8.48773 6.54804C8.00277 6.45157 7.50011 6.50108 7.04329 6.6903C6.58648 6.87952 6.19603 7.19995 5.92133 7.61108C5.64662 8.0222 5.5 8.50555 5.5 9C5.50073 9.66282 5.76435 10.2983 6.23304 10.767C6.70172 11.2356 7.33718 11.4993 8 11.5ZM8 7C8.39556 7 8.78224 7.1173 9.11114 7.33706C9.44004 7.55683 9.69638 7.86918 9.84776 8.23463C9.99913 8.60009 10.0387 9.00222 9.96157 9.39018C9.8844 9.77814 9.69392 10.1345 9.41421 10.4142C9.13451 10.6939 8.77814 10.8844 8.39018 10.9616C8.00222 11.0387 7.60009 10.9991 7.23463 10.8478C6.86918 10.6964 6.55682 10.44 6.33706 10.1111C6.1173 9.78224 6 9.39556 6 9C6.0006 8.46975 6.2115 7.96139 6.58644 7.58645C6.96139 7.2115 7.46975 7.0006 8 7Z" fill="#670379"/>
<path d="M8 9.75C7.9337 9.75 7.87011 9.72366 7.82322 9.67678C7.77634 9.62989 7.75 9.5663 7.75 9.5C7.75 9.4337 7.72366 9.37011 7.67678 9.32322C7.62989 9.27634 7.5663 9.25 7.5 9.25C7.4337 9.25 7.37011 9.27634 7.32322 9.32322C7.27634 9.37011 7.25 9.4337 7.25 9.5C7.25064 9.65457 7.29902 9.80516 7.38852 9.93118C7.47802 10.0572 7.60427 10.1525 7.75 10.204V10.5C7.75 10.5663 7.77634 10.6299 7.82322 10.6768C7.87011 10.7237 7.9337 10.75 8 10.75C8.0663 10.75 8.12989 10.7237 8.17678 10.6768C8.22366 10.6299 8.25 10.5663 8.25 10.5V10.204C8.41667 10.1453 8.55719 10.0295 8.64666 9.87712C8.73613 9.72474 8.76879 9.54561 8.73885 9.37146C8.7089 9.1973 8.61829 9.03937 8.48306 8.92562C8.34783 8.81188 8.17671 8.74967 8 8.75C7.95055 8.75 7.90222 8.73534 7.86111 8.70787C7.82 8.6804 7.78795 8.64135 7.76903 8.59567C7.75011 8.54999 7.74516 8.49972 7.7548 8.45123C7.76445 8.40273 7.78826 8.35819 7.82322 8.32322C7.85819 8.28826 7.90273 8.26445 7.95123 8.2548C7.99972 8.24516 8.04999 8.25011 8.09567 8.26903C8.14135 8.28795 8.1804 8.32 8.20787 8.36111C8.23534 8.40222 8.25 8.45055 8.25 8.5C8.25 8.5663 8.27634 8.62989 8.32322 8.67678C8.37011 8.72366 8.4337 8.75 8.5 8.75C8.5663 8.75 8.62989 8.72366 8.67678 8.67678C8.72366 8.62989 8.75 8.5663 8.75 8.5C8.74936 8.34543 8.70098 8.19484 8.61148 8.06882C8.52198 7.94281 8.39573 7.84752 8.25 7.796V7.5C8.25 7.4337 8.22366 7.37011 8.17678 7.32322C8.12989 7.27634 8.0663 7.25 8 7.25C7.9337 7.25 7.87011 7.27634 7.82322 7.32322C7.77634 7.37011 7.75 7.4337 7.75 7.5V7.796C7.58333 7.85471 7.44281 7.9705 7.35334 8.12288C7.26387 8.27526 7.23121 8.45439 7.26115 8.62854C7.2911 8.8027 7.38171 8.96063 7.51694 9.07438C7.65217 9.18812 7.82329 9.25033 8 9.25C8.0663 9.25 8.12989 9.27634 8.17678 9.32322C8.22366 9.37011 8.25 9.4337 8.25 9.5C8.25 9.5663 8.22366 9.62989 8.17678 9.67678C8.12989 9.72366 8.0663 9.75 8 9.75Z" fill="#670379"/>
<path d="M14.8045 9H13.1845C12.8043 7.75952 12.0857 6.64963 11.1095 5.795L9.7205 4.5795C9.82821 4.49361 9.90995 4.37949 9.95658 4.24986C10.0032 4.12023 10.0129 3.98019 9.98461 3.84537C9.95629 3.71055 9.89108 3.58625 9.79624 3.48633C9.7014 3.38641 9.58066 3.3148 9.4475 3.2795L10.7083 1.3885C10.7384 1.34344 10.753 1.28981 10.75 1.2357C10.747 1.18159 10.7264 1.12993 10.6915 1.0885C10.6852 1.0815 10.6772 1.07725 10.6705 1.07075L10.6725 1.06875C10.2874 0.705952 9.77906 0.502701 9.25 0.5C8.83257 0.500774 8.42526 0.628607 8.08225 0.8665C7.306 0.527 6.5 0.18675 5.35 1.05C5.29886 1.08835 5.26435 1.14482 5.25356 1.20783C5.24277 1.27083 5.25653 1.33557 5.292 1.38875L6.55275 3.27975C6.43256 3.31141 6.32225 3.37277 6.23196 3.45818C6.14167 3.5436 6.07429 3.65033 6.03601 3.76858C5.99773 3.88683 5.98978 4.0128 6.01289 4.13493C6.03599 4.25705 6.08942 4.37141 6.16825 4.4675L4.985 5.572L5.3265 5.93725L6.5985 4.75H9.156L10.781 6.17125C11.6477 6.93037 12.2964 7.90681 12.6602 9H11.6955C11.5111 9.0002 11.3343 9.07354 11.2039 9.20393C11.0735 9.33431 11.0002 9.5111 11 9.6955V10.3045C11.0007 10.468 11.0596 10.6259 11.166 10.75C11.0596 10.8741 11.0007 11.032 11 11.1955V11.8045C11.001 11.8778 11.0137 11.9504 11.0375 12.0197C10.885 12.0554 10.749 12.1414 10.6515 12.2639C10.5539 12.3864 10.5006 12.5382 10.5 12.6947V13.3038C10.5006 13.4603 10.5539 13.6121 10.6515 13.7346C10.749 13.8571 10.885 13.9431 11.0375 13.9788C11.0137 14.0481 11.001 14.1207 11 14.194V14.803C11.0011 14.8323 11.0041 14.8615 11.0087 14.8905C10.7622 14.9623 10.5068 14.9992 10.25 15H10.2185C10.2384 14.9367 10.249 14.8708 10.25 14.8045V14.1955C10.2493 14.032 10.1904 13.8741 10.084 13.75C10.1904 13.6259 10.2493 13.468 10.25 13.3045V12.6955C10.2498 12.5111 10.1765 12.3343 10.0461 12.2039C9.91569 12.0735 9.7389 12.0002 9.5545 12H6.4455C6.2611 12.0002 6.08432 12.0735 5.95393 12.2039C5.82354 12.3343 5.7502 12.5111 5.75 12.6955V13.3045C5.75072 13.468 5.80956 13.6259 5.916 13.75C5.80956 13.8741 5.75072 14.032 5.75 14.1955V14.8045C5.75098 14.8708 5.76159 14.9367 5.7815 15H5.75C5.49328 14.9997 5.23787 14.9633 4.99125 14.892C4.99593 14.863 4.99886 14.8338 5 14.8045V14.1955C4.99899 14.1222 4.98633 14.0496 4.9625 13.9803C5.11498 13.9446 5.25099 13.8586 5.34853 13.7361C5.44607 13.6136 5.49943 13.4618 5.5 13.3053V12.6955C5.49943 12.5389 5.44607 12.3871 5.34853 12.2646C5.25099 12.1421 5.11498 12.0561 4.9625 12.0205C4.98633 11.9512 4.99899 11.8785 5 11.8053V11.1955C4.99928 11.032 4.94044 10.8741 4.834 10.75C4.94044 10.6259 4.99928 10.468 5 10.3045V9.6955C4.9998 9.5111 4.92646 9.33431 4.79607 9.20393C4.66568 9.07354 4.4889 9.0002 4.3045 9H3.297C3.61209 7.9854 4.17106 7.06351 4.925 6.315L4.575 5.95975C3.72497 6.80263 3.10524 7.84937 2.775 9H1.1955C1.0111 9.0002 0.834315 9.07354 0.703927 9.20393C0.573538 9.33431 0.500199 9.5111 0.5 9.6955V10.3045C0.500724 10.468 0.559563 10.6259 0.666 10.75C0.559563 10.8741 0.500724 11.032 0.5 11.1955V11.8045C0.500566 11.9611 0.553934 12.1129 0.651474 12.2354C0.749014 12.3579 0.885021 12.4439 1.0375 12.4795C1.01367 12.5488 1.00101 12.6215 1 12.6947V13.3038C1.00101 13.377 1.01367 13.4497 1.0375 13.519C0.884771 13.5547 0.748576 13.6409 0.65101 13.7637C0.553443 13.8865 0.500229 14.0387 0.5 14.1955V14.8045C0.500199 14.9889 0.573538 15.1657 0.703927 15.2961C0.834315 15.4265 1.0111 15.4998 1.1955 15.5H4.3045C4.46543 15.4993 4.62104 15.4423 4.74425 15.3387C5.0689 15.4452 5.40835 15.4996 5.75 15.5H10.25C10.5917 15.4996 10.9311 15.4452 11.2557 15.3387C11.379 15.4423 11.5346 15.4993 11.6955 15.5H14.8045C14.9889 15.4998 15.1657 15.4265 15.2961 15.2961C15.4265 15.1657 15.4998 14.9889 15.5 14.8045V14.1955C15.4994 14.0389 15.4461 13.8871 15.3485 13.7646C15.251 13.6421 15.115 13.5561 14.9625 13.5205C14.9863 13.4512 14.999 13.3785 15 13.3053V12.6955C14.999 12.6222 14.9863 12.5496 14.9625 12.4803C15.115 12.4446 15.251 12.3586 15.3485 12.2361C15.4461 12.1136 15.4994 11.9618 15.5 11.8053V11.1955C15.4993 11.032 15.4404 10.8741 15.334 10.75C15.4404 10.6259 15.4993 10.468 15.5 10.3045V9.6955C15.4998 9.5111 15.4265 9.33431 15.2961 9.20393C15.1657 9.07354 14.9889 9.0002 14.8045 9ZM9.961 1.175C9.538 1.28367 9.09193 1.26082 8.68225 1.1095C8.86285 1.03736 9.05552 1.0002 9.25 1C9.49724 1.00341 9.74043 1.06327 9.961 1.175ZM7.90275 1.3345C8.465 1.58075 9.08575 1.85325 9.8985 1.7025L8.86625 3.25H7.13375L5.84375 1.315C6.66225 0.7905 7.2155 1.0325 7.90275 1.33375V1.3345ZM6.75 4.25C6.6837 4.25 6.62011 4.22366 6.57322 4.17678C6.52634 4.12989 6.5 4.0663 6.5 4C6.5 3.9337 6.52634 3.87011 6.57322 3.82322C6.62011 3.77634 6.6837 3.75 6.75 3.75H9.25C9.3163 3.75 9.37989 3.77634 9.42678 3.82322C9.47366 3.87011 9.5 3.9337 9.5 4C9.5 4.0663 9.47366 4.12989 9.42678 4.17678C9.37989 4.22366 9.3163 4.25 9.25 4.25H6.75ZM5 13.3045C4.99993 13.3563 4.97932 13.406 4.94267 13.4427C4.90602 13.4793 4.85633 13.4999 4.8045 13.5H1.6955C1.64367 13.4999 1.59398 13.4793 1.55733 13.4427C1.52068 13.406 1.50007 13.3563 1.5 13.3045V12.6955C1.50007 12.6437 1.52068 12.594 1.55733 12.5573C1.59398 12.5207 1.64367 12.5001 1.6955 12.5H2V13H2.5V12.5H3V13H3.5V12.5H4V13H4.5V12.5H4.8045C4.85633 12.5001 4.90602 12.5207 4.94267 12.5573C4.97932 12.594 4.99993 12.6437 5 12.6955V13.3045ZM1 9.6955C1.00007 9.64367 1.02068 9.59398 1.05733 9.55733C1.09398 9.52069 1.14367 9.50007 1.1955 9.5H1.5V10H2V9.5H2.5V10H3V9.5H3.5V10H4V9.5H4.3045C4.35633 9.50007 4.40602 9.52069 4.44267 9.55733C4.47932 9.59398 4.49993 9.64367 4.5 9.6955V10.3045C4.49993 10.3563 4.47932 10.406 4.44267 10.4427C4.40602 10.4793 4.35633 10.4999 4.3045 10.5H1.1955C1.14367 10.4999 1.09398 10.4793 1.05733 10.4427C1.02068 10.406 1.00007 10.3563 1 10.3045V9.6955ZM1 11.1955C1.00007 11.1437 1.02068 11.094 1.05733 11.0573C1.09398 11.0207 1.14367 11.0001 1.1955 11H1.5V11.5H2V11H2.5V11.5H3V11H3.5V11.5H4V11H4.3045C4.35633 11.0001 4.40602 11.0207 4.44267 11.0573C4.47932 11.094 4.49993 11.1437 4.5 11.1955V11.8045C4.49993 11.8563 4.47932 11.906 4.44267 11.9427C4.40602 11.9793 4.35633 11.9999 4.3045 12H1.1955C1.14367 11.9999 1.09398 11.9793 1.05733 11.9427C1.02068 11.906 1.00007 11.8563 1 11.8045V11.1955ZM4.5 14.8045C4.49993 14.8563 4.47932 14.906 4.44267 14.9427C4.40602 14.9793 4.35633 14.9999 4.3045 15H1.1955C1.14367 14.9999 1.09398 14.9793 1.05733 14.9427C1.02068 14.906 1.00007 14.8563 1 14.8045V14.1955C1.00007 14.1437 1.02068 14.094 1.05733 14.0573C1.09398 14.0207 1.14367 14.0001 1.1955 14H1.5V14.5H2V14H2.5V14.5H3V14H3.5V14.5H4V14H4.3045C4.35633 14.0001 4.40602 14.0207 4.44267 14.0573C4.47932 14.094 4.49993 14.1437 4.5 14.1955V14.8045ZM6.25 12.6955C6.25007 12.6437 6.27068 12.594 6.30733 12.5573C6.34398 12.5207 6.39367 12.5001 6.4455 12.5H6.75V13H7.25V12.5H7.75V13H8.25V12.5H8.75V13H9.25V12.5H9.5545C9.60633 12.5001 9.65602 12.5207 9.69267 12.5573C9.72931 12.594 9.74993 12.6437 9.75 12.6955V13.3045C9.74993 13.3563 9.72931 13.406 9.69267 13.4427C9.65602 13.4793 9.60633 13.4999 9.5545 13.5H6.4455C6.39367 13.4999 6.34398 13.4793 6.30733 13.4427C6.27068 13.406 6.25007 13.3563 6.25 13.3045V12.6955ZM6.4455 15C6.39367 14.9999 6.34398 14.9793 6.30733 14.9427C6.27068 14.906 6.25007 14.8563 6.25 14.8045V14.1955C6.25007 14.1437 6.27068 14.094 6.30733 14.0573C6.34398 14.0207 6.39367 14.0001 6.4455 14H6.75V14.5H7.25V14H7.75V14.5H8.25V14H8.75V14.5H9.25V14H9.5545C9.60633 14.0001 9.65602 14.0207 9.69267 14.0573C9.72931 14.094 9.74993 14.1437 9.75 14.1955V14.8045C9.74993 14.8563 9.72931 14.906 9.69267 14.9427C9.65602 14.9793 9.60633 14.9999 9.5545 15H6.4455ZM11.5 9.6955C11.5001 9.64367 11.5207 9.59398 11.5573 9.55733C11.594 9.52069 11.6437 9.50007 11.6955 9.5H12V10H12.5V9.5H13V10H13.5V9.5H14V10H14.5V9.5H14.8045C14.8563 9.50007 14.906 9.52069 14.9427 9.55733C14.9793 9.59398 14.9999 9.64367 15 9.6955V10.3045C14.9999 10.3563 14.9793 10.406 14.9427 10.4427C14.906 10.4793 14.8563 10.4999 14.8045 10.5H11.6955C11.6437 10.4999 11.594 10.4793 11.5573 10.4427C11.5207 10.406 11.5001 10.3563 11.5 10.3045V9.6955ZM11 12.6955C11.0001 12.6437 11.0207 12.594 11.0573 12.5573C11.094 12.5207 11.1437 12.5001 11.1955 12.5H11.5V13H12V12.5H12.5V13H13V12.5H13.5V13H14V12.5H14.3045C14.3563 12.5001 14.406 12.5207 14.4427 12.5573C14.4793 12.594 14.4999 12.6437 14.5 12.6955V13.3045C14.4999 13.3563 14.4793 13.406 14.4427 13.4427C14.406 13.4793 14.3563 13.4999 14.3045 13.5H11.1955C11.1437 13.4999 11.094 13.4793 11.0573 13.4427C11.0207 13.406 11.0001 13.3563 11 13.3045V12.6955ZM15 14.8045C14.9999 14.8563 14.9793 14.906 14.9427 14.9427C14.906 14.9793 14.8563 14.9999 14.8045 15H11.6955C11.6437 14.9999 11.594 14.9793 11.5573 14.9427C11.5207 14.906 11.5001 14.8563 11.5 14.8045V14.1955C11.5001 14.1437 11.5207 14.094 11.5573 14.0573C11.594 14.0207 11.6437 14.0001 11.6955 14H12V14.5H12.5V14H13V14.5H13.5V14H14V14.5H14.5V14H14.8045C14.8563 14.0001 14.906 14.0207 14.9427 14.0573C14.9793 14.094 14.9999 14.1437 15 14.1955V14.8045ZM15 11.8045C14.9999 11.8563 14.9793 11.906 14.9427 11.9427C14.906 11.9793 14.8563 11.9999 14.8045 12H11.6955C11.6437 11.9999 11.594 11.9793 11.5573 11.9427C11.5207 11.906 11.5001 11.8563 11.5 11.8045V11.1955C11.5001 11.1437 11.5207 11.094 11.5573 11.0573C11.594 11.0207 11.6437 11.0001 11.6955 11H12V11.5H12.5V11H13V11.5H13.5V11H14V11.5H14.5V11H14.8045C14.8563 11.0001 14.906 11.0207 14.9427 11.0573C14.9793 11.094 14.9999 11.1437 15 11.1955V11.8045Z" fill="#670379"/>
</g>
<defs>
<clipPath id="clip0_14_344">
<rect width="16" height="16" fill="white"/>
</clipPath>
</defs>
</svg>
