<svg width="32" height="32" viewBox="0 0 32 32" fill="none" xmlns="http://www.w3.org/2000/svg">
<path opacity="0.9" d="M25.8094 23.8218C25.3062 24.4543 24.7506 25.03 24.15 25.5431C24.008 25.6643 23.8637 25.7818 23.7175 25.8956C23.7012 25.9087 23.6849 25.9218 23.6687 25.935C23.6631 25.9393 23.6569 25.9431 23.6512 25.9475C23.2775 26.235 22.8887 26.4993 22.4862 26.7405C22.3662 26.8124 22.2455 26.883 22.123 26.9511C20.9893 27.58 19.7594 28.0275 18.4718 28.2736C17.7049 28.4199 16.9174 28.4955 16.118 28.4955C14.373 28.4955 12.6843 28.1368 11.098 27.4305C10.6143 27.2143 10.1418 26.9661 9.69366 26.6924C9.25866 26.4274 8.83304 26.1299 8.42866 25.8086C8.09866 25.5468 7.78491 25.2699 7.48679 24.9805C7.40554 24.9017 7.32616 24.8218 7.24804 24.7411C5.34616 22.7905 4.14991 20.2805 3.83554 17.5299C3.55179 15.0455 4.01241 12.5899 5.14491 10.4205C5.45679 9.82296 5.82054 9.24677 6.23304 8.69796C6.24554 8.68171 6.25804 8.6649 6.27054 8.64859C6.32679 8.57484 6.38366 8.50115 6.44179 8.42802C8.80241 5.45796 12.3349 3.75427 16.1337 3.75427C18.9525 3.75427 21.6112 4.68365 23.8225 6.44115C23.9187 6.5174 24.0031 6.58677 24.0812 6.65302C24.2787 6.81802 24.4743 6.9924 24.6756 7.18427C24.7062 7.21365 24.7375 7.24302 24.7675 7.27365C24.8488 7.35177 24.9288 7.4324 25.0075 7.51302C27.0332 9.59746 28.2562 12.3262 28.4644 15.2474C28.6856 18.3443 27.7425 21.3893 25.8094 23.8218Z" fill="#6A6D68"/>
<path d="M25.5594 23.5718C25.0562 24.2043 24.5006 24.78 23.9 25.2931C23.758 25.4143 23.6137 25.5318 23.4675 25.6456C23.4512 25.6587 23.4349 25.6718 23.4187 25.685C23.4131 25.6893 23.4069 25.6931 23.4012 25.6975C23.0275 25.985 22.6387 26.2493 22.2362 26.4905C22.1162 26.5624 21.9955 26.633 21.873 26.7011C20.638 27.3861 19.2881 27.8556 17.8743 28.085C17.2175 28.1911 16.5475 28.2455 15.868 28.2455C14.123 28.2455 12.4343 27.8868 10.848 27.1805C10.3643 26.9643 9.89179 26.7161 9.44366 26.4424C9.00866 26.1774 8.58304 25.8799 8.17866 25.5586C7.85304 25.2998 7.54304 25.0267 7.24804 24.7411C7.24429 24.738 7.24054 24.7343 7.23679 24.7305C5.19679 22.748 3.91304 20.1442 3.58554 17.2799C3.30179 14.7955 3.76241 12.3399 4.89491 10.1705C5.20679 9.57296 5.57054 8.99677 5.98304 8.44796C6.05116 8.3574 6.12054 8.26733 6.19179 8.17802C6.22616 8.1349 6.26054 8.0924 6.29491 8.04984C8.65491 5.15921 12.1399 3.50427 15.8837 3.50427C18.7025 3.50427 21.3612 4.43365 23.5725 6.19115C23.6687 6.2674 23.7531 6.33677 23.8312 6.40302C24.0287 6.56802 24.2243 6.7424 24.4256 6.93427C24.5388 7.04177 24.6494 7.15177 24.7575 7.26302C24.7607 7.26683 24.7644 7.2699 24.7675 7.27365C26.7875 9.35677 28.0069 12.0811 28.2143 14.9974C28.4356 18.0943 27.4925 21.1393 25.5594 23.5718Z" fill="#A3AAA0"/>
<path d="M17.8125 12.5312C19.3485 12.5312 20.5938 11.286 20.5938 9.75C20.5938 8.21396 19.3485 6.96875 17.8125 6.96875C16.2765 6.96875 15.0312 8.21396 15.0312 9.75C15.0312 11.286 16.2765 12.5312 17.8125 12.5312Z" fill="#666865" stroke="#5E5E5D" stroke-width="0.2" stroke-miterlimit="10"/>
<path d="M24.0625 20.0938C24.8046 20.0938 25.4062 19.4921 25.4062 18.75C25.4062 18.0079 24.8046 17.4062 24.0625 17.4062C23.3204 17.4062 22.7188 18.0079 22.7188 18.75C22.7188 19.4921 23.3204 20.0938 24.0625 20.0938Z" fill="#666865" stroke="#5E5E5D" stroke-width="0.2" stroke-miterlimit="10"/>
<path d="M10.375 20.2713C11.336 20.2713 12.115 19.4922 12.115 18.5313C12.115 17.5703 11.336 16.7913 10.375 16.7913C9.41403 16.7913 8.63501 17.5703 8.63501 18.5313C8.63501 19.4922 9.41403 20.2713 10.375 20.2713Z" fill="#666865" stroke="#5E5E5D" stroke-width="0.2" stroke-miterlimit="10"/>
<path d="M16.3281 17.9688C16.8373 17.9688 17.25 17.556 17.25 17.0469C17.25 16.5377 16.8373 16.125 16.3281 16.125C15.819 16.125 15.4062 16.5377 15.4062 17.0469C15.4062 17.556 15.819 17.9688 16.3281 17.9688Z" fill="#666865" stroke="#5E5E5D" stroke-width="0.2" stroke-miterlimit="10"/>
<path d="M9.46875 13.25C10.4352 13.25 11.2188 12.4665 11.2188 11.5C11.2188 10.5335 10.4352 9.75 9.46875 9.75C8.50225 9.75 7.71875 10.5335 7.71875 11.5C7.71875 12.4665 8.50225 13.25 9.46875 13.25Z" fill="#666865" stroke="#5E5E5D" stroke-width="0.2" stroke-miterlimit="10"/>
<path d="M18.5938 25.625C19.543 25.625 20.3125 24.8555 20.3125 23.9062C20.3125 22.957 19.543 22.1875 18.5938 22.1875C17.6445 22.1875 16.875 22.957 16.875 23.9062C16.875 24.8555 17.6445 25.625 18.5938 25.625Z" fill="#666865" stroke="#5E5E5D" stroke-width="0.2" stroke-miterlimit="10"/>
<path d="M24.6875 14.4688C25.3261 14.4688 25.8438 13.9511 25.8438 13.3125C25.8438 12.6739 25.3261 12.1562 24.6875 12.1562C24.0489 12.1562 23.5312 12.6739 23.5312 13.3125C23.5312 13.9511 24.0489 14.4688 24.6875 14.4688Z" fill="#666865" stroke="#5E5E5D" stroke-width="0.2" stroke-miterlimit="10"/>
<path d="M19.8125 14C20.0886 14 20.3125 13.7761 20.3125 13.5C20.3125 13.2239 20.0886 13 19.8125 13C19.5364 13 19.3125 13.2239 19.3125 13.5C19.3125 13.7761 19.5364 14 19.8125 14Z" fill="#666865" stroke="#5E5E5D" stroke-width="0.2" stroke-miterlimit="10"/>
<path opacity="0.2" d="M18.7218 28.1487C17.955 28.295 17.1675 28.3706 16.3681 28.3706C14.6231 28.3706 12.9343 28.0119 11.3481 27.3056C10.8643 27.0894 10.3918 26.8412 9.94372 26.5675C9.50872 26.3025 9.0831 26.005 8.67872 25.6837C8.34872 25.4219 8.03497 25.145 7.73685 24.8556C7.6556 24.7768 7.57622 24.6969 7.4981 24.6162C7.49435 24.6131 7.4906 24.6094 7.48685 24.6056C5.44685 22.6231 4.1631 20.0193 3.8356 17.155C3.55185 14.6706 4.01247 12.215 5.14497 10.0456C5.45685 9.44805 5.8206 8.87186 6.2331 8.32305C6.30122 8.23249 6.3706 8.14243 6.44185 8.05311C6.47622 8.00999 6.5106 7.96749 6.54497 7.92493C6.53497 8.11311 6.52685 8.31243 6.5206 8.52368C6.37122 13.4706 7.33122 24.3631 18.1244 27.9599C18.32 28.0256 18.5193 28.0887 18.7218 28.1487Z" fill="#666865" stroke="#5E5E5D" stroke-width="0.2" stroke-miterlimit="10"/>
</svg>
