<svg width="96" height="96" viewBox="0 0 96 96" fill="none" xmlns="http://www.w3.org/2000/svg">
<path d="M34.7383 40.9453H54.3729V44.1267H34.7383V40.9453Z" fill="#BFBFBF"/>
<path d="M34.7383 48.6523H54.3729V51.8334H34.7383V48.6523Z" fill="#BFBFBF"/>
<path d="M75.6602 33.957C75.6602 28.2988 71.057 23.6953 65.3988 23.6953C61.2433 23.6953 57.6564 26.1781 56.0448 29.7382H27.6257C24.1297 29.7382 21.2852 32.583 21.2852 36.0787V56.4378C21.2852 59.9341 24.1297 62.779 27.6257 62.779H29.3415V71.8858L42.9439 62.779H60.6533C64.1499 62.779 66.9945 59.9341 66.9945 56.4378V44.0942C71.897 43.3253 75.6602 39.0722 75.6602 33.957ZM60.6533 59.5973H41.9775L32.5226 65.9272V59.5973H27.6257C25.8837 59.5973 24.4662 58.1802 24.4662 56.4378V36.0787C24.4662 34.337 25.8837 32.9199 27.6257 32.9199H55.1895C55.155 33.2607 55.1371 33.6069 55.1371 33.957C55.1371 39.0756 58.9049 43.3312 63.8128 44.0959V56.4378C63.8128 58.1802 62.3953 59.5973 60.6533 59.5973ZM65.3988 41.037C61.4949 41.037 58.3188 37.8609 58.3188 33.957C58.3188 30.0528 61.4949 26.8764 65.3988 26.8764C69.3027 26.8764 72.4791 30.0528 72.4791 33.957C72.4791 37.8609 69.3027 41.037 65.3988 41.037Z" fill="#BFBFBF"/>
<path d="M63.8086 30.1914H66.99V37.7204H63.8086V30.1914Z" fill="#BFBFBF"/>
</svg>
