<svg width="16" height="16" viewBox="0 0 16 16" fill="none" xmlns="http://www.w3.org/2000/svg">
<path d="M6.58966 9.84492C7.54737 9.76279 8.51029 9.76279 9.46801 9.84492C9.99173 9.88002 10.5119 9.95652 11.0237 10.0737C12.1308 10.2966 12.8533 10.7365 13.1562 11.3818C13.3983 11.9179 13.3919 12.5344 13.1388 13.0653C12.83 13.7106 12.1075 14.1505 10.9829 14.3793C10.4729 14.4941 9.95465 14.5686 9.43305 14.6022C8.85621 14.6667 8.36678 14.6667 7.9123 14.6667H7.73168C7.47421 14.6388 7.27903 14.42 7.27903 14.1593C7.27903 13.8986 7.47421 13.6798 7.73168 13.6519L8.13034 13.6518C8.52992 13.6471 8.93196 13.6284 9.33399 13.5932C9.80828 13.5622 10.2796 13.4955 10.744 13.3938C11.5423 13.2178 12.0434 12.9656 12.2007 12.6312C12.3231 12.3755 12.3231 12.0775 12.2007 11.8217C12.0434 11.4815 11.5423 11.2175 10.7615 11.0592C10.2899 10.9526 9.81059 10.884 9.32817 10.8539C8.42688 10.7717 7.52008 10.7717 6.61879 10.8539C6.14258 10.8849 5.66932 10.9516 5.20293 11.0533C4.40468 11.2293 3.90942 11.4815 3.74627 11.8159C3.68847 11.9429 3.65866 12.0809 3.65888 12.2206C3.65855 12.3622 3.68835 12.5022 3.74627 12.6312C4.0236 13.0125 4.44553 13.261 4.9116 13.3175L4.97921 13.3359C5.13254 13.3892 5.2529 13.514 5.29979 13.6733C5.35337 13.8553 5.30214 14.0523 5.16679 14.1845C5.03144 14.3168 4.83437 14.3624 4.65523 14.303C3.90404 14.1797 3.2452 13.7289 2.8548 13.0712C2.60394 12.5384 2.60394 11.9204 2.8548 11.3877C3.16361 10.7248 3.88611 10.2966 4.999 10.0678C5.52296 9.95372 6.05466 9.87921 6.58966 9.84492ZM6.64313 1.60485C7.9698 1.05226 9.49648 1.35897 10.5109 2.38187C11.5252 3.40477 11.8274 4.94226 11.2763 6.27696C10.7253 7.61167 9.4296 8.48054 7.99387 8.47817C6.03642 8.47493 4.45129 6.87648 4.45129 4.90582L4.45459 4.75153C4.51368 3.36829 5.36385 2.1377 6.64313 1.60485ZM7.99387 2.35414C7.32065 2.35259 6.67448 2.62073 6.19789 3.09944C5.7213 3.57814 5.45346 4.22805 5.45346 4.90582C5.45111 5.94078 6.06857 6.87515 7.01766 7.27286C7.96675 7.67056 9.06038 7.4532 9.78814 6.72221C10.5159 5.99123 10.7343 4.89072 10.3415 3.93432C9.94859 2.97791 9.0219 2.35414 7.99387 2.35414Z" fill="#670379"/>
</svg>
