<svg width="375" height="128" viewBox="0 0 375 128" fill="none" xmlns="http://www.w3.org/2000/svg">
<rect x="20" width="335" height="128" rx="10" fill="#670379"/>
<path d="M355 118C340.678 118 326.943 112.311 316.816 102.184C306.689 92.0568 301 78.3217 301 64C301 49.6783 306.689 35.9432 316.816 25.8162C326.943 15.6893 340.678 10 355 10L355 64V118Z" fill="white" fill-opacity="0.3"/>
<path d="M18 10C32.3217 10 46.0568 15.6893 56.1838 25.8162C66.3107 35.9432 72 49.6783 72 64C72 78.3217 66.3107 92.0568 56.1838 102.184C46.0568 112.311 32.3217 118 18 118L18 64V10Z" fill="white" fill-opacity="0.3"/>
</svg>
