<svg width="32" height="32" viewBox="0 0 32 32" fill="none" xmlns="http://www.w3.org/2000/svg">
<path opacity="0.6" d="M27.765 16C27.765 14.8444 29.8586 13.4293 29.5739 12.3635C29.279 11.2606 26.7501 11.0829 26.1914 10.1174C25.6246 9.13812 26.7292 6.86036 25.9346 6.06556C25.1397 5.27068 22.8619 6.37524 21.8826 5.80868C20.917 5.25004 20.7394 2.72084 19.6366 2.42604C18.5708 2.14124 17.1557 4.23492 16.0001 4.23492C14.8445 4.23492 13.4294 2.14124 12.3637 2.42604C11.2606 2.72092 11.0831 5.25004 10.1175 5.80868C9.13825 6.37548 6.86065 5.27068 6.06577 6.06556C5.27097 6.86036 6.37537 9.13812 5.80881 10.1175C5.25033 11.0828 2.72097 11.2605 2.42617 12.3634C2.14153 13.4292 4.23521 14.8444 4.23521 16C4.23521 17.1553 2.14153 18.5705 2.42617 19.6364C2.72105 20.7392 5.25033 20.9168 5.80881 21.8824C6.37561 22.8618 5.27097 25.1394 6.06577 25.9342C6.86065 26.7291 9.13825 25.6245 10.1178 26.1911C11.0831 26.7497 11.2606 29.2789 12.3637 29.5737C13.4294 29.8585 14.8446 27.7647 16.0001 27.7647C17.1556 27.7647 18.5708 29.8585 19.6366 29.5737C20.7394 29.2788 20.917 26.7497 21.8827 26.1911C22.862 25.6243 25.1398 26.7291 25.9346 25.9342C26.7293 25.1393 25.6249 22.8618 26.1914 21.8822C26.75 20.9168 29.279 20.7392 29.5739 19.6364C29.8586 18.5706 27.765 17.1554 27.765 16Z" fill="#FFBE55"/>
<path d="M25.0825 16.0001C25.0825 20.5875 21.6813 24.3806 17.2626 24.9952C16.8443 25.0536 16.4226 25.0827 16.0003 25.0824C10.9842 25.0824 6.91711 21.016 6.91711 16.0002C6.91711 10.9839 10.9841 6.91772 16.0003 6.91772C16.4286 6.91772 16.8502 6.94716 17.2626 7.00484C21.6814 7.61924 25.0825 11.4124 25.0825 16.0001Z" fill="#FFBE55"/>
</svg>
